<?xml version="1.0" encoding="UTF-8"?>
<svg version="1.1" xmlns="http://www.w3.org/2000/svg" width="512" height="512">
<path d="M0 0 C1.38833914 -0.00115623 2.77667797 -0.0027471 4.16501617 -0.00472724 C7.92891407 -0.00885162 11.69278619 -0.00686153 15.45668411 -0.00374103 C19.53582167 -0.00145868 23.61495509 -0.00498052 27.6940918 -0.00772095 C35.66495245 -0.01214752 43.63580364 -0.01121608 51.60666466 -0.00830831 C58.08974662 -0.006042 64.57282595 -0.00574706 71.0559082 -0.00683212 C71.98164217 -0.00698536 72.90737615 -0.00713859 73.86116266 -0.00729647 C75.74227842 -0.00761622 77.62339417 -0.00794043 79.50450993 -0.00826906 C97.10814202 -0.01111473 114.71176889 -0.00785116 132.31540012 -0.00246869 C147.39190999 0.00199852 162.46841215 0.00122233 177.54492188 -0.00338745 C195.08927283 -0.00874935 212.63361922 -0.01084012 230.17797089 -0.00777519 C232.05183411 -0.00745667 233.92569733 -0.0071423 235.79956055 -0.00683212 C236.7213304 -0.00667785 237.64310025 -0.00652357 238.59280252 -0.00636462 C245.06162533 -0.00550431 251.53044522 -0.00695185 257.99926758 -0.00931168 C265.89183985 -0.01212784 273.78440219 -0.01133328 281.67697334 -0.00603093 C285.69720124 -0.00341833 289.71741263 -0.00234706 293.73764038 -0.00568008 C297.42882762 -0.00869383 301.11998328 -0.00696716 304.81116772 -0.00170253 C306.75506534 -0.00008362 308.69896521 -0.00329029 310.64286041 -0.00675976 C336.32999724 0.04941683 359.80287663 3.07077949 379.42773438 21.12698364 C380.26820313 21.87592896 381.10867188 22.62487427 381.97460938 23.39651489 C399.17031956 39.52400672 405.1966826 60.32203759 406.42773438 83.12698364 C406.55444605 87.9451952 406.56319689 92.75967681 406.55471802 97.57936096 C406.55587349 98.97906108 406.55746386 100.37876089 406.55944526 101.77846009 C406.56358006 105.5830119 406.56157465 109.3875383 406.55845904 113.19209015 C406.55618107 117.31146224 406.55969643 121.43083018 406.56243896 125.55020142 C406.56687023 133.60388589 406.56593194 141.657561 406.56302632 149.71124583 C406.56076173 156.26112717 406.56046434 162.8110059 406.56155014 169.36088753 C406.56170337 170.29550729 406.56185661 171.23012704 406.56201448 172.19306861 C406.56233423 174.09214417 406.56265844 175.99121972 406.56298707 177.89029527 C406.56583417 195.67081551 406.56256702 213.45133058 406.55718671 231.23184998 C406.55272011 246.46390558 406.55349491 261.69595356 406.55810547 276.92800903 C406.56346612 294.646297 406.56555878 312.36458045 406.56249321 330.08286911 C406.56217468 331.97500074 406.56186031 333.86713237 406.56155014 335.75926399 C406.56139586 336.69005686 406.56124159 337.62084973 406.56108264 338.57984845 C406.5602219 345.11574295 406.56167081 351.65163456 406.56402969 358.18752861 C406.56684449 366.16142505 406.56605416 374.13531165 406.56074895 382.10920697 C406.55813442 386.17182761 406.55706844 390.23443189 406.5603981 394.29705238 C406.56340781 398.02589226 406.56169159 401.75470083 406.55642055 405.48353792 C406.55479842 407.45014115 406.55801201 409.41674661 406.56147778 411.38334745 C406.50456935 437.6166418 402.75570074 460.22133519 384.42773438 480.12698364 C383.88890625 480.75733521 383.35007812 481.38768677 382.79492188 482.03713989 C370.45997138 495.64277624 350.56845951 503.76479308 332.57629812 505.49799645 C328.6267527 505.63919523 324.68772397 505.66653775 320.73674011 505.64164734 C319.2267886 505.6469888 317.71684243 505.65406358 316.20690614 505.66269439 C312.10664425 505.68113729 308.00674803 505.67508103 303.90647209 505.66454136 C299.46528132 505.65749648 295.02416176 505.67358715 290.58299255 505.6865387 C281.90121806 505.70809685 273.21957506 505.70807277 264.53778263 505.69991315 C257.47548089 505.69359342 250.41321727 505.69476821 243.35091591 505.70118523 C241.83872295 505.70253771 241.83872295 505.70253771 240.29598064 505.70391751 C238.24745207 505.70576887 236.1989235 505.70763143 234.15039495 505.70950507 C214.97290101 505.72605537 195.7954808 505.71738832 176.61799131 505.70051949 C159.10749295 505.68582873 141.59716628 505.70044712 124.08669003 505.72928966 C106.06802534 505.75874618 88.0494397 505.7696375 70.030752 505.76010746 C67.98916806 505.759085 65.94758411 505.75809039 63.90600014 505.75712395 C62.3995936 505.75640936 62.3995936 505.75640936 60.86275461 505.75568034 C53.81822866 505.75352426 46.77377825 505.76327728 39.72926903 505.77789497 C31.13073897 505.79548977 22.53242754 505.79519919 13.9339058 505.77254332 C9.55470573 505.76146506 5.1758898 505.75809117 0.79670715 505.77684402 C-25.82086505 505.88223321 -48.43445939 504.01092129 -70.34960938 487.35354614 C-71.57226562 486.12698364 -71.57226562 486.12698364 -71.57226562 484.12698364 C-72.23226562 484.12698364 -72.89226562 484.12698364 -73.57226562 484.12698364 C-73.57226562 483.46698364 -73.57226562 482.80698364 -73.57226562 482.12698364 C-74.23226562 482.12698364 -74.89226562 482.12698364 -75.57226562 482.12698364 C-75.57226562 481.46698364 -75.57226562 480.80698364 -75.57226562 480.12698364 C-76.23226562 480.12698364 -76.89226562 480.12698364 -77.57226562 480.12698364 C-77.57226562 479.46698364 -77.57226562 478.80698364 -77.57226562 478.12698364 C-78.23226562 478.12698364 -78.89226562 478.12698364 -79.57226562 478.12698364 C-93.3358497 461.30788391 -99.22629653 441.93680378 -99.0802002 420.415802 C-99.08482327 418.9037132 -99.09118552 417.39162891 -99.09910917 415.87955379 C-99.11563292 411.77349166 -99.10763456 407.66780677 -99.0951643 403.56174421 C-99.08604575 399.1144822 -99.10011698 394.66728127 -99.11108398 390.22003174 C-99.12880174 381.52722559 -99.12505943 372.83455817 -99.11343342 364.14174676 C-99.1043727 357.07226953 -99.10318647 350.00283098 -99.10752869 342.93334961 C-99.10814162 341.9243548 -99.10875455 340.91535999 -99.10938606 339.87578958 C-99.11066505 337.82556382 -99.11196191 335.77533806 -99.11327642 333.72511232 C-99.12466247 314.53339882 -99.11159958 295.34176194 -99.09007496 276.15006101 C-99.07220579 259.70906198 -99.07531045 243.26817595 -99.09375 226.82717896 C-99.11519168 207.700679 -99.12356401 188.57424608 -99.11130095 169.44773579 C-99.11002685 167.40536309 -99.10876936 165.36299039 -99.10752869 163.32061768 C-99.10660303 161.81357793 -99.10660303 161.81357793 -99.10565868 160.27609295 C-99.10221567 153.22115487 -99.10801143 146.16625957 -99.1174469 139.11132812 C-99.12870498 130.50504828 -99.12554714 121.89891424 -99.10432392 113.29265094 C-99.09386454 108.90779908 -99.08960359 104.52318966 -99.10292053 100.13834 C-99.11495732 96.11391964 -99.10809909 92.08996335 -99.08701032 88.0655843 C-99.0825915 86.62030079 -99.08470228 85.17497696 -99.09451348 83.72972 C-99.18491316 69.29030902 -96.37884809 55.95939352 -89.57226562 43.12698364 C-89.15460938 42.31100708 -88.73695312 41.49503052 -88.30664062 40.65432739 C-78.60828797 23.06909599 -61.58079601 9.82544893 -42.54882812 3.77151489 C-28.72128197 -0.13721403 -14.27648535 -0.02548077 0 0 Z " fill="#F7F8F9" transform="translate(102.572265625,4.873016357421875)"/>
<path d="M0 0 C0.72578751 -0.00145523 1.45157501 -0.00291046 2.19935608 -0.00440979 C3.72466064 -0.00276004 5.24998346 0.00869707 6.77514648 0.02954102 C9.08846032 0.05847872 11.39947351 0.0501351 13.71289062 0.03710938 C29.81285447 0.05808816 29.81285447 0.05808816 36.12109375 5.046875 C36.82105469 5.91892578 36.82105469 5.91892578 37.53515625 6.80859375 C38.1075 7.51886719 38.67984375 8.22914062 39.26953125 8.9609375 C42.36270718 13.10860522 45.38804086 17.29861634 48.36328125 21.53125 C51.37894643 25.82069936 54.45687134 30.0639738 57.53515625 34.30859375 C61.78308865 40.1770383 65.99255905 46.07034533 70.16015625 51.99609375 C75.87373894 60.11802071 81.6796324 68.1710314 87.50585938 76.21240234 C90.28933827 80.05488487 93.06890224 83.90019345 95.84765625 87.74609375 C96.39156006 88.49882568 96.93546387 89.25155762 97.49584961 90.02709961 C101.13316667 95.06452783 104.75138531 100.11516429 108.35668945 105.17553711 C111.72764944 109.90245172 115.13045061 114.60595057 118.53515625 119.30859375 C127.19974946 131.28408936 135.70172761 143.37433158 144.16015625 155.49609375 C141.10715203 161.13183504 137.56694825 166.18693799 133.72265625 171.30859375 C132.46411605 173.0007611 131.20632071 174.69348266 129.94921875 176.38671875 C129.31532227 177.23943359 128.68142578 178.09214844 128.02832031 178.97070312 C125.18730091 182.81120296 122.38942194 186.6822081 119.59765625 190.55859375 C118.80016968 191.66521362 118.80016968 191.66521362 117.98657227 192.79418945 C116.91379514 194.28333607 115.84128453 195.77267474 114.76904297 197.26220703 C111.5286943 201.76132544 108.27987923 206.25433494 105.03271484 210.74853516 C102.33417603 214.48403875 99.63757672 218.22090855 96.9453125 221.9609375 C91.33112447 229.75525222 85.68130242 237.52062975 79.97265625 245.24609375 C75.15728696 251.76332248 70.40151152 258.3172269 65.70703125 264.921875 C61.12025412 271.37134886 56.46682272 277.77316768 51.82910156 284.18603516 C50.19497326 286.44790204 48.56378495 288.71185683 46.93359375 290.9765625 C44.25054678 294.70337918 41.5589114 298.42387832 38.86328125 302.14160156 C37.68050211 303.77673946 36.50104895 305.41428631 35.32421875 307.05371094 C33.46425072 309.64396724 31.59430888 312.22677241 29.72265625 314.80859375 C29.15554932 315.60322021 28.58844238 316.39784668 28.00415039 317.21655273 C23.97132666 322.75073793 19.72997372 327.94737336 13.16015625 330.49609375 C10.59592115 330.71115047 8.14277692 330.82388979 5.578125 330.83203125 C4.84572098 330.83868805 4.11331696 330.84534485 3.35871887 330.85220337 C1.81135562 330.86230939 0.26394896 330.86702102 -1.28344727 330.86669922 C-3.63436988 330.87106041 -5.98339515 330.907364 -8.33398438 330.9453125 C-9.84244155 330.95118382 -11.35090757 330.9551511 -12.859375 330.95703125 C-13.55440628 330.97140228 -14.24943756 330.98577332 -14.9655304 331.00057983 C-20.43251906 330.95016546 -23.42618425 329.48278063 -27.83984375 326.49609375 C-31.8479554 322.17155223 -33.26773534 318.68665822 -33.18505859 312.72241211 C-32.06625022 305.5071267 -26.08186476 298.79235004 -21.83984375 293.05859375 C-20.68737519 291.48186206 -19.53503517 289.90503639 -18.3828125 288.328125 C-17.79677246 287.52971191 -17.21073242 286.73129883 -16.60693359 285.90869141 C-13.76963769 282.03494754 -10.9614288 278.14031733 -8.15234375 274.24609375 C-7.33733398 273.11796265 -7.33733398 273.11796265 -6.50585938 271.96704102 C-2.86759529 266.92923308 0.75088566 261.87772451 4.35668945 256.81665039 C7.72764905 252.08973633 11.13038251 247.38618712 14.53515625 242.68359375 C18.78258606 236.81477972 22.99255377 230.92184968 27.16015625 224.99609375 C33.95234423 215.34091631 40.87835726 205.78403598 47.80566406 196.22558594 C55.22075641 185.9907318 62.63131481 175.75091153 69.82421875 165.35791016 C70.73716873 164.08558622 71.69315082 162.84334623 72.68359375 161.63037109 C74.33275182 159.64235378 74.33275182 159.64235378 76.16015625 156.49609375 C75.50940011 151.62718333 71.23187488 147.20464199 68.34765625 143.30859375 C67.16392193 141.69020698 65.98033216 140.07171446 64.796875 138.453125 C63.88881104 137.2168335 63.88881104 137.2168335 62.96240234 135.95556641 C60.17426122 132.15067156 57.41794385 128.32301298 54.66015625 124.49609375 C53.57699552 122.99596911 52.49366165 121.49596946 51.41015625 119.99609375 C36.24348958 98.99609375 21.07682292 77.99609375 5.91015625 56.99609375 C5.37302002 56.25262695 4.83588379 55.50916016 4.2824707 54.74316406 C3.20708906 53.25365124 2.13269553 51.7634245 1.05932617 50.27246094 C-1.76268295 46.355363 -4.60440299 42.45473024 -7.4765625 38.57421875 C-8.07082031 37.76597656 -8.66507813 36.95773438 -9.27734375 36.125 C-10.41295836 34.58127389 -11.55455144 33.04192124 -12.703125 31.5078125 C-17.54494985 24.90200623 -20.01413143 18.77556514 -18.83984375 10.49609375 C-15.0422246 2.44514116 -8.46443614 -0.13932843 0 0 Z " fill="#238CCC" transform="translate(144.83984375,84.50390625)"/>
<path d="M0 0 C1.38833914 -0.00115623 2.77667797 -0.0027471 4.16501617 -0.00472724 C7.92891407 -0.00885162 11.69278619 -0.00686153 15.45668411 -0.00374103 C19.53582167 -0.00145868 23.61495509 -0.00498052 27.6940918 -0.00772095 C35.66495245 -0.01214752 43.63580364 -0.01121608 51.60666466 -0.00830831 C58.08974662 -0.006042 64.57282595 -0.00574706 71.0559082 -0.00683212 C71.98164217 -0.00698536 72.90737615 -0.00713859 73.86116266 -0.00729647 C75.74227842 -0.00761622 77.62339417 -0.00794043 79.50450993 -0.00826906 C97.10814202 -0.01111473 114.71176889 -0.00785116 132.31540012 -0.00246869 C147.39190999 0.00199852 162.46841215 0.00122233 177.54492188 -0.00338745 C195.08927283 -0.00874935 212.63361922 -0.01084012 230.17797089 -0.00777519 C232.05183411 -0.00745667 233.92569733 -0.0071423 235.79956055 -0.00683212 C236.7213304 -0.00667785 237.64310025 -0.00652357 238.59280252 -0.00636462 C245.06162533 -0.00550431 251.53044522 -0.00695185 257.99926758 -0.00931168 C265.89183985 -0.01212784 273.78440219 -0.01133328 281.67697334 -0.00603093 C285.69720124 -0.00341833 289.71741263 -0.00234706 293.73764038 -0.00568008 C297.42882762 -0.00869383 301.11998328 -0.00696716 304.81116772 -0.00170253 C306.75506534 -0.00008362 308.69896521 -0.00329029 310.64286041 -0.00675976 C336.32999724 0.04941683 359.80287663 3.07077949 379.42773438 21.12698364 C380.26820313 21.87592896 381.10867188 22.62487427 381.97460938 23.39651489 C399.17031956 39.52400672 405.1966826 60.32203759 406.42773438 83.12698364 C406.55444605 87.9451952 406.56319689 92.75967681 406.55471802 97.57936096 C406.55587349 98.97906108 406.55746386 100.37876089 406.55944526 101.77846009 C406.56358006 105.5830119 406.56157465 109.3875383 406.55845904 113.19209015 C406.55618107 117.31146224 406.55969643 121.43083018 406.56243896 125.55020142 C406.56687023 133.60388589 406.56593194 141.657561 406.56302632 149.71124583 C406.56076173 156.26112717 406.56046434 162.8110059 406.56155014 169.36088753 C406.56170337 170.29550729 406.56185661 171.23012704 406.56201448 172.19306861 C406.56233423 174.09214417 406.56265844 175.99121972 406.56298707 177.89029527 C406.56583417 195.67081551 406.56256702 213.45133058 406.55718671 231.23184998 C406.55272011 246.46390558 406.55349491 261.69595356 406.55810547 276.92800903 C406.56346612 294.646297 406.56555878 312.36458045 406.56249321 330.08286911 C406.56217468 331.97500074 406.56186031 333.86713237 406.56155014 335.75926399 C406.56139586 336.69005686 406.56124159 337.62084973 406.56108264 338.57984845 C406.5602219 345.11574295 406.56167081 351.65163456 406.56402969 358.18752861 C406.56684449 366.16142505 406.56605416 374.13531165 406.56074895 382.10920697 C406.55813442 386.17182761 406.55706844 390.23443189 406.5603981 394.29705238 C406.56340781 398.02589226 406.56169159 401.75470083 406.55642055 405.48353792 C406.55479842 407.45014115 406.55801201 409.41674661 406.56147778 411.38334745 C406.50456935 437.6166418 402.75570074 460.22133519 384.42773438 480.12698364 C383.88890625 480.75733521 383.35007812 481.38768677 382.79492188 482.03713989 C370.45997138 495.64277624 350.56845951 503.76479308 332.57629812 505.49799645 C328.6267527 505.63919523 324.68772397 505.66653775 320.73674011 505.64164734 C319.2267886 505.6469888 317.71684243 505.65406358 316.20690614 505.66269439 C312.10664425 505.68113729 308.00674803 505.67508103 303.90647209 505.66454136 C299.46528132 505.65749648 295.02416176 505.67358715 290.58299255 505.6865387 C281.90121806 505.70809685 273.21957506 505.70807277 264.53778263 505.69991315 C257.47548089 505.69359342 250.41321727 505.69476821 243.35091591 505.70118523 C241.83872295 505.70253771 241.83872295 505.70253771 240.29598064 505.70391751 C238.24745207 505.70576887 236.1989235 505.70763143 234.15039495 505.70950507 C214.97290101 505.72605537 195.7954808 505.71738832 176.61799131 505.70051949 C159.10749295 505.68582873 141.59716628 505.70044712 124.08669003 505.72928966 C106.06802534 505.75874618 88.0494397 505.7696375 70.030752 505.76010746 C67.98916806 505.759085 65.94758411 505.75809039 63.90600014 505.75712395 C62.3995936 505.75640936 62.3995936 505.75640936 60.86275461 505.75568034 C53.81822866 505.75352426 46.77377825 505.76327728 39.72926903 505.77789497 C31.13073897 505.79548977 22.53242754 505.79519919 13.9339058 505.77254332 C9.55470573 505.76146506 5.1758898 505.75809117 0.79670715 505.77684402 C-25.82086505 505.88223321 -48.43445939 504.01092129 -70.34960938 487.35354614 C-71.57226562 486.12698364 -71.57226562 486.12698364 -71.57226562 484.12698364 C-72.23226562 484.12698364 -72.89226562 484.12698364 -73.57226562 484.12698364 C-73.57226562 483.46698364 -73.57226562 482.80698364 -73.57226562 482.12698364 C-74.23226562 482.12698364 -74.89226562 482.12698364 -75.57226562 482.12698364 C-75.57226562 481.46698364 -75.57226562 480.80698364 -75.57226562 480.12698364 C-76.23226562 480.12698364 -76.89226562 480.12698364 -77.57226562 480.12698364 C-77.57226562 479.46698364 -77.57226562 478.80698364 -77.57226562 478.12698364 C-78.23226562 478.12698364 -78.89226562 478.12698364 -79.57226562 478.12698364 C-93.3358497 461.30788391 -99.22629653 441.93680378 -99.0802002 420.415802 C-99.08482327 418.9037132 -99.09118552 417.39162891 -99.09910917 415.87955379 C-99.11563292 411.77349166 -99.10763456 407.66780677 -99.0951643 403.56174421 C-99.08604575 399.1144822 -99.10011698 394.66728127 -99.11108398 390.22003174 C-99.12880174 381.52722559 -99.12505943 372.83455817 -99.11343342 364.14174676 C-99.1043727 357.07226953 -99.10318647 350.00283098 -99.10752869 342.93334961 C-99.10814162 341.9243548 -99.10875455 340.91535999 -99.10938606 339.87578958 C-99.11066505 337.82556382 -99.11196191 335.77533806 -99.11327642 333.72511232 C-99.12466247 314.53339882 -99.11159958 295.34176194 -99.09007496 276.15006101 C-99.07220579 259.70906198 -99.07531045 243.26817595 -99.09375 226.82717896 C-99.11519168 207.700679 -99.12356401 188.57424608 -99.11130095 169.44773579 C-99.11002685 167.40536309 -99.10876936 165.36299039 -99.10752869 163.32061768 C-99.10660303 161.81357793 -99.10660303 161.81357793 -99.10565868 160.27609295 C-99.10221567 153.22115487 -99.10801143 146.16625957 -99.1174469 139.11132812 C-99.12870498 130.50504828 -99.12554714 121.89891424 -99.10432392 113.29265094 C-99.09386454 108.90779908 -99.08960359 104.52318966 -99.10292053 100.13834 C-99.11495732 96.11391964 -99.10809909 92.08996335 -99.08701032 88.0655843 C-99.0825915 86.62030079 -99.08470228 85.17497696 -99.09451348 83.72972 C-99.18491316 69.29030902 -96.37884809 55.95939352 -89.57226562 43.12698364 C-89.15460938 42.31100708 -88.73695312 41.49503052 -88.30664062 40.65432739 C-78.60828797 23.06909599 -61.58079601 9.82544893 -42.54882812 3.77151489 C-28.72128197 -0.13721403 -14.27648535 -0.02548077 0 0 Z M-50.94726562 12.87698364 C-51.93738647 13.39349487 -51.93738647 13.39349487 -52.94750977 13.92044067 C-71.86555657 24.09800273 -83.29175202 40.71235101 -89.66210938 60.75198364 C-91.08093972 66.01322578 -91.69740918 70.94745775 -91.7064867 76.39318562 C-91.71094455 77.63822025 -91.71540239 78.88325488 -91.71999532 80.16601783 C-91.71990604 81.53975063 -91.71971621 82.91348342 -91.71943665 84.28721619 C-91.7227382 85.75283346 -91.72646438 87.21844983 -91.73057812 88.68406504 C-91.74057342 92.70805175 -91.74431094 96.73202354 -91.74696743 100.7560209 C-91.75087793 105.09780086 -91.76045586 109.4395691 -91.7691803 113.78134155 C-91.78892544 124.26622094 -91.79900922 134.75110127 -91.80790809 145.23599461 C-91.81229488 150.17841993 -91.81766074 155.12084418 -91.82289696 160.06326866 C-91.83990859 176.50218515 -91.85440097 192.94110098 -91.8616457 209.38002491 C-91.86355547 213.64422926 -91.86547582 217.90843361 -91.86743164 222.17263794 C-91.86791538 223.23243513 -91.86839912 224.29223231 -91.86889752 225.38414457 C-91.87719113 242.53770644 -91.90251705 259.69119843 -91.93501232 276.84472982 C-91.96813172 294.47206669 -91.98609894 312.09936811 -91.98928994 329.72673625 C-91.9914507 339.61720819 -92.00013549 349.50757826 -92.02575111 359.39801979 C-92.04752502 367.82443204 -92.05547583 376.25071768 -92.04578433 384.67715488 C-92.04125871 388.97094163 -92.04302363 393.26446752 -92.06254578 397.558218 C-92.63048759 425.84672593 -92.63048759 425.84672593 -83.94726562 452.43948364 C-83.60808105 453.08917114 -83.26889648 453.73885864 -82.91943359 454.40823364 C-73.37435209 471.95567016 -57.83343725 483.47798425 -39.25976562 490.04885864 C-29.75971253 492.82641654 -20.84003831 493.41846436 -10.96224976 493.39440918 C-9.49659099 493.39815133 -8.03093421 493.40275509 -6.56528056 493.40813982 C-2.55978044 493.42031566 1.44563581 493.42011578 5.45115018 493.41775107 C9.77989553 493.41734153 14.10861449 493.42839524 18.43734741 493.43786621 C26.91035403 493.45444783 35.38333282 493.45997449 43.85635431 493.46109097 C50.74766851 493.46204286 57.63897357 493.46616023 64.53028488 493.47249222 C84.09031755 493.49009751 103.6503283 493.4993323 123.21036895 493.49783127 C124.26388176 493.49775136 125.31739458 493.49767145 126.40283203 493.49758911 C127.45763891 493.49750735 128.51244578 493.49742559 129.59921651 493.49734135 C146.68530558 493.49652883 163.77130641 493.51565977 180.85736997 493.54386584 C198.42268285 493.57263305 215.98795275 493.586404 233.55328977 493.58467829 C243.40621695 493.58401568 253.25905165 493.58945141 263.11195755 493.61103439 C271.50244272 493.62929682 279.89279349 493.63355217 288.28328998 493.62001555 C292.55874833 493.61351113 296.8339492 493.61327652 301.10938263 493.63072205 C305.03410759 493.64657084 308.95837347 493.64347051 312.88308804 493.62615378 C314.29221868 493.62310959 315.70138462 493.62661719 317.11047359 493.63787393 C337.94916499 493.79313319 358.11230708 486.98061597 373.75195312 472.83401489 C387.39470255 458.93685522 396.52913562 440.55700125 396.56195545 420.85798836 C396.56864222 418.98951136 396.56864222 418.98951136 396.57546407 417.08328736 C396.57537479 415.70886555 396.57518496 414.33444375 396.5749054 412.96002197 C396.57820694 411.49369201 396.58193312 410.02736295 396.58604687 408.56103504 C396.59604214 404.53511772 396.59977968 400.5092153 396.60243618 396.48328733 C396.60634665 392.13948149 396.61592454 387.79568737 396.62464905 383.45188904 C396.64439361 372.96256555 396.65447761 362.47324113 396.66337684 351.98390371 C396.66776346 347.0398552 396.67312934 342.09580776 396.67836571 337.1517601 C396.69537679 320.7085524 396.70986953 304.26534535 396.71711445 287.8221302 C396.71902423 283.55688603 396.72094458 279.29164186 396.72290039 275.02639771 C396.72338413 273.96633821 396.72386787 272.90627871 396.72436627 271.8140962 C396.73266123 254.65339226 396.75798968 237.49275814 396.79048107 220.33208467 C396.82359349 202.69910257 396.84156703 185.06615589 396.84475869 167.43314254 C396.84692003 157.53879012 396.85561338 147.64453949 396.88121986 137.75021744 C396.90298414 129.32121476 396.91094924 120.89233862 396.90125308 112.46331103 C396.89672479 108.16762298 396.89850825 103.87219567 396.91801453 99.57654381 C396.93576537 95.63316381 396.93455327 91.69023245 396.91911723 87.7468469 C396.91675906 86.33086385 396.92097014 84.91484874 396.93294588 83.49891438 C397.036277 70.4592372 394.92404551 57.36428528 388.67773438 45.75198364 C388.33339355 45.09190308 387.98905273 44.43182251 387.63427734 43.7517395 C377.45671528 24.8336927 360.84236701 13.40749725 340.80273438 7.03713989 C335.53492098 5.61653744 330.59564957 5.0018212 325.14312172 4.99276257 C323.26941963 4.9860758 323.26941963 4.9860758 321.35786498 4.97925395 C319.97951292 4.97934323 318.60116087 4.97953306 317.22280884 4.97981262 C315.75235408 4.97651109 314.28190022 4.97278491 312.8114475 4.96867114 C308.77412861 4.95867569 304.73682458 4.9549383 300.69949508 4.95228183 C296.3434192 4.94837142 291.98735501 4.93879353 287.63128662 4.93006897 C277.11230027 4.91032426 266.59331299 4.90024039 256.07431275 4.89134118 C251.11631747 4.88695458 246.15832326 4.8815887 241.20032883 4.87635231 C224.71079798 4.85934122 208.22126778 4.84484847 191.73172951 4.83760357 C187.45445378 4.83569378 183.17717805 4.83377344 178.89990234 4.83181763 C177.83685223 4.83133389 176.77380212 4.83085015 175.67853837 4.83035175 C158.46933557 4.82205675 141.26020241 4.79672824 124.05103 4.76423695 C106.36832735 4.73112484 88.68566003 4.71315101 71.00292623 4.70995933 C61.08062825 4.70779796 51.15843178 4.6991042 41.23616409 4.67349815 C32.78337294 4.6517343 24.33070796 4.64376857 15.87789197 4.65346494 C11.5700526 4.65799335 7.26247324 4.65620906 2.95466995 4.63670349 C-0.99981218 4.61895353 -4.95384691 4.62016406 -8.90833457 4.63560078 C-10.32835526 4.63795909 -11.74840791 4.63374718 -13.16838007 4.62177213 C-26.22108954 4.51863727 -39.32272639 6.62408984 -50.94726562 12.87698364 Z " fill="#020202" transform="translate(102.572265625,4.873016357421875)"/>
<path d="M0 0 C3.03982947 1.31527209 4.67169672 2.50723465 6.5234375 5.24609375 C6.97968506 5.90859131 7.43593262 6.57108887 7.90600586 7.25366211 C8.39077393 7.97432861 8.87554199 8.69499512 9.375 9.4375 C10.44474118 10.99087513 11.51643072 12.54290992 12.58984375 14.09375 C13.14784668 14.90199219 13.70584961 15.71023438 14.28076172 16.54296875 C17.09301324 20.56206834 20.01418984 24.49881837 22.9375 28.4375 C30.24435794 38.30783304 37.431155 48.26191532 44.60449219 58.22949219 C50.81419679 66.8551305 57.0575481 75.4528592 63.375 84 C78.98124965 105.12236193 78.98124965 105.12236193 78 113 C76.15678307 118.83509816 73.48215049 122.08396251 68 125 C64.49123755 126.16958748 61.31522422 126.16208588 57.6640625 126.16796875 C56.94769623 126.17129715 56.23132996 126.17462555 55.49325562 126.17805481 C53.97858318 126.18311354 52.46389962 126.18546346 50.94921875 126.18530273 C48.64043644 126.18748541 46.33213506 126.2056412 44.0234375 126.22460938 C42.54948079 126.22754435 41.07552183 126.22952845 39.6015625 126.23046875 C38.91494537 126.23765427 38.22832825 126.24483978 37.52090454 126.25224304 C33.57427522 126.23358047 30.48260949 125.90757349 27 124 C25.40112305 122.36206055 25.40112305 122.36206055 24.01171875 120.38671875 C23.47869141 119.64421875 22.94566406 118.90171875 22.39648438 118.13671875 C21.83251953 117.32847656 21.26855469 116.52023437 20.6875 115.6875 C19.44320487 113.95053305 18.19704111 112.21490351 16.94921875 110.48046875 C16.30259277 109.57731934 15.6559668 108.67416992 14.98974609 107.74365234 C11.74239294 103.26589103 8.369849 98.88586746 5 94.5 C-0.66330106 87.10209208 -6.24127318 79.64871604 -11.75048828 72.13549805 C-18.42730447 63.03572111 -25.21324287 54.01792147 -32 45 C-28.0102166 38.47375381 -23.78647731 32.2996288 -19.06079102 26.28076172 C-14.33863106 20.22963196 -9.96266899 13.94198436 -5.56640625 7.65234375 C-3.75712578 5.06458368 -1.92084639 2.50686732 0 0 Z " fill="#EB2485" transform="translate(321,289)"/>
<path d="M0 0 C2.45014077 0.02680146 4.89570244 0.00018835 7.34570312 -0.03173828 C15.56833915 -0.04935462 21.96964617 0.02776994 28.45507812 5.65185547 C31.6268807 9.22013337 31.82390236 12.48744969 31.95117188 17.07763672 C30.52325488 24.48706426 25.51236658 30.70924616 21.20507812 36.71435547 C19.94680291 38.49006935 18.6890092 40.26612449 17.43164062 42.04248047 C16.45179199 43.42209961 16.45179199 43.42209961 15.45214844 44.82958984 C12.13244817 49.521 8.85743732 54.24331613 5.58007812 58.96435547 C4.23513873 60.89932963 2.89008576 62.83422486 1.54492188 64.76904297 C0.87315918 65.73551758 0.20139648 66.70199219 -0.49072266 67.69775391 C-2.56865615 70.68598724 -4.64832704 73.67300411 -6.72851562 76.65966797 C-14.36990884 87.63261529 -21.98793789 98.62058011 -29.54492188 109.65185547 C-33.7115344 108.14015932 -35.59579662 105.18114424 -37.98242188 101.65185547 C-38.86177707 100.38563756 -39.74203179 99.12004401 -40.62304688 97.85498047 C-41.3259082 96.83887695 -41.3259082 96.83887695 -42.04296875 95.80224609 C-44.17158404 92.75464475 -46.35324662 89.74668311 -48.53710938 86.73852539 C-50.2084739 84.43486326 -51.86921192 82.12380971 -53.52929688 79.81201172 C-55.31571906 77.33080768 -57.12522796 74.87701514 -58.99804688 72.46044922 C-59.9803125 71.16300781 -59.9803125 71.16300781 -60.98242188 69.83935547 C-61.53800781 69.13166016 -62.09359375 68.42396484 -62.66601562 67.69482422 C-63.54492188 65.65185547 -63.54492188 65.65185547 -62.78417969 63.30712891 C-61.57101168 60.70775632 -60.22582195 58.48158561 -58.59570312 56.12451172 C-57.70540405 54.82864136 -57.70540405 54.82864136 -56.79711914 53.5065918 C-56.15701904 52.58515381 -55.51691895 51.66371582 -54.85742188 50.71435547 C-53.49784749 48.74053446 -52.1384785 46.76657196 -50.77929688 44.79248047 C-49.73032227 43.27364258 -49.73032227 43.27364258 -48.66015625 41.72412109 C-45.93271675 37.76266003 -43.23293521 33.78279126 -40.53417969 29.80175781 C-38.0738245 26.17856369 -35.59776367 22.56627964 -33.11914062 18.95556641 C-31.76897011 16.97972755 -30.43537088 14.99420063 -29.10742188 13.00341797 C-28.44742188 12.04177734 -27.78742188 11.08013672 -27.10742188 10.08935547 C-26.33591797 8.94273438 -26.33591797 8.94273438 -25.54882812 7.77294922 C-18.11679856 -0.09370196 -10.31760385 -0.13445153 0 0 Z " fill="#75BB44" transform="translate(353.544921875,84.34814453125)"/>
</svg>
