<?xml version="1.0" encoding="UTF-8"?>
<svg version="1.1" xmlns="http://www.w3.org/2000/svg" width="32" height="32">
<path d="M0 0 C9.9 0 19.8 0 30 0 C29.71125 3.83625 29.4225 7.6725 29.125 11.625 C29.03879395 12.82334473 28.95258789 14.02168945 28.86376953 15.25634766 C28.02299056 25.84163052 28.02299056 25.84163052 26 30 C19.51883831 32.85171114 13.04411891 32.9352894 6.5 30.5 C4.7675 29.7575 4.7675 29.7575 3 29 C2.68328643 26.60466145 2.37163188 24.20882016 2.0625 21.8125 C1.93198242 20.83120117 1.93198242 20.83120117 1.79882812 19.83007812 C0.95228597 13.21450798 0.51401177 6.682153 0 0 Z " fill="#2951E5" transform="translate(1,0)"/>
<path d="M0 0 C5.94 0 11.88 0 18 0 C17.34 5.94 16.68 11.88 16 18 C9.25 20.25 9.25 20.25 5.125 19.125 C4.34382812 18.92132812 3.56265625 18.71765625 2.7578125 18.5078125 C2.17773438 18.34023438 1.59765625 18.17265625 1 18 C1 16.02 1 14.04 1 12 C2.32 12 3.64 12 5 12 C5.33 12.99 5.66 13.98 6 15 C8.31 15 10.62 15 13 15 C13 13.68 13 12.36 13 11 C9.04 11 5.08 11 1 11 C1 9.68 1 8.36 1 7 C5.29 7 9.58 7 14 7 C14 5.68 14 4.36 14 3 C9.38 3 4.76 3 0 3 C0 2.01 0 1.02 0 0 Z " fill="#F5F8FE" transform="translate(7,6)"/>
<path d="M0 0 C3.63 0 7.26 0 11 0 C11.11055829 8.41471412 10.90473908 16.63116351 10 25 C6.7 25.66 3.4 26.32 0 27 C0.33 25.68 0.66 24.36 1 23 C2.65 22.67 4.3 22.34 6 22 C6.99 16.06 7.98 10.12 9 4 C3.06 4 -2.88 4 -9 4 C-9 3.67 -9 3.34 -9 3 C-6.03 3 -3.06 3 0 3 C0 2.01 0 1.02 0 0 Z " fill="#3066EF" transform="translate(16,2)"/>
<path d="M0 0 C1.85776765 3.13498292 2.20140476 5.37471432 2 9 C-3.625 11 -3.625 11 -7 11 C-6.67 9.68 -6.34 8.36 -6 7 C-4.35 6.67 -2.7 6.34 -1 6 C-0.67 4.02 -0.34 2.04 0 0 Z " fill="#3D72F2" transform="translate(23,18)"/>
<path d="M0 0 C1.32 0 2.64 0 4 0 C4.33 0.99 4.66 1.98 5 3 C5.99 3.33 6.98 3.66 8 4 C8 5.32 8 6.64 8 8 C5.36 7.34 2.72 6.68 0 6 C0 4.02 0 2.04 0 0 Z " fill="#CED4E9" transform="translate(8,18)"/>
<path d="M0 0 C2.64 0 5.28 0 8 0 C8 1.32 8 2.64 8 4 C5.69 4.33 3.38 4.66 1 5 C0.67 3.35 0.34 1.7 0 0 Z " fill="#2C52E4" transform="translate(12,17)"/>
<path d="M0 0 C2.64 0 5.28 0 8 0 C8 0.99 8 1.98 8 3 C9.32 3.33 10.64 3.66 12 4 C8.04 4 4.08 4 0 4 C0 2.68 0 1.36 0 0 Z " fill="#CED5EB" transform="translate(8,13)"/>
<path d="M0 0 C2.97 0 5.94 0 9 0 C9 0.99 9 1.98 9 3 C6.03 3 3.06 3 0 3 C0 2.01 0 1.02 0 0 Z " fill="#E4E5EA" transform="translate(7,6)"/>
<path d="M0 0 C1.32 0 2.64 0 4 0 C4 1.32 4 2.64 4 4 C2.68 4.33 1.36 4.66 0 5 C0 3.35 0 1.7 0 0 Z " fill="#2B66F1" transform="translate(16,17)"/>
</svg>
