<?xml version="1.0" encoding="UTF-8"?>
<svg version="1.1" xmlns="http://www.w3.org/2000/svg" width="50" height="50">
<path d="M0 0 C4.44882196 2.14496773 7.28771205 4.88134052 10 9 C10.75 11.8125 10.75 11.8125 11 14 C10.01 14 9.02 14 8 14 C7.443125 12.906875 6.88625 11.81375 6.3125 10.6875 C4.30550176 7.2568525 2.84334471 5.42036652 -1 4 C-5.96174551 3.33510948 -9.8212258 3.4856258 -14.4375 5.5 C-17.80943288 8.78969061 -18.65398982 11.5132994 -20 16 C-16.04 12.535 -16.04 12.535 -12 9 C-8.33228155 10.83385923 -6.53165004 12.25062829 -3.75 15.125 C-3.04359375 15.84945313 -2.3371875 16.57390625 -1.609375 17.3203125 C-1.07828125 17.87460937 -0.5471875 18.42890625 0 19 C2.6905528 17.77992056 2.6905528 17.77992056 5 16 C7.69654854 15.92680379 10.36691458 15.90757463 13.0625 15.9375 C14.20041992 15.94426758 14.20041992 15.94426758 15.36132812 15.95117188 C17.24091871 15.9629932 19.12046899 15.98092922 21 16 C21 16.66 21 17.32 21 18 C19.69675781 18.00386719 19.69675781 18.00386719 18.3671875 18.0078125 C10.5349812 18.05241067 10.5349812 18.05241067 4.1875 22.0625 C3.1046875 23.5165625 3.1046875 23.5165625 2 25 C-1.45201639 23.52278578 -3.64961936 21.56205999 -6.25 18.875 C-6.95640625 18.15054687 -7.6628125 17.42609375 -8.390625 16.6796875 C-8.92171875 16.12539063 -9.4528125 15.57109375 -10 15 C-12.6905528 16.22007944 -12.6905528 16.22007944 -15 18 C-16.66617115 18.04063832 -18.33388095 18.042721 -20 18 C-18.65398982 22.4867006 -17.80943288 25.21030939 -14.4375 28.5 C-8.96589566 30.88760917 -3.73875874 31.01214997 1.875 28.9375 C4.78508894 26.28418362 6.21385815 23.50613029 8 20 C8.99 20 9.98 20 11 20 C10.04651163 24.90365449 10.04651163 24.90365449 9.125 26.8125 C8.73305404 29.32181565 8.73305404 29.32181565 11.30859375 31.796875 C12.33917494 32.79421164 13.38280409 33.77820038 14.4375 34.75 C14.96666016 35.25660156 15.49582031 35.76320312 16.04101562 36.28515625 C17.34977101 37.53495869 18.67351959 38.76902618 20 40 C19.34 41.32 18.68 42.64 18 44 C13.32577962 42.08155581 10.62144974 38.49668206 7.31640625 34.80078125 C5.16829044 32.70955165 5.16829044 32.70955165 2.5859375 33.2109375 C1.30589844 33.60152344 1.30589844 33.60152344 0 34 C-5.58467617 34.45849966 -10.38548585 34.77842646 -15.5 32.3125 C-22.76311164 25.59412173 -22.76311164 25.59412173 -23.23828125 20.390625 C-23.48734758 9.85118657 -23.48734758 9.85118657 -19 5 C-12.83628287 -0.42994128 -8.09617809 -0.76299061 0 0 Z " fill="#000000" transform="translate(26,3)"/>
</svg>
