<?xml version="1.0" encoding="UTF-8"?>
<svg version="1.1" xmlns="http://www.w3.org/2000/svg" width="200" height="200">
<path d="M0 0 C1.0209375 0.03287109 1.0209375 0.03287109 2.0625 0.06640625 C2.743125 0.06511719 3.42375 0.06382812 4.125 0.0625 C6.87388458 0.86610537 7.56520677 2.23074115 9.0625 4.62890625 C9.46655273 6.83618164 9.46655273 6.83618164 9.49609375 9.2265625 C9.51325439 10.54503174 9.51325439 10.54503174 9.53076172 11.89013672 C9.52061035 12.81455566 9.51045898 13.73897461 9.5 14.69140625 C9.49242676 15.6364502 9.48485352 16.58149414 9.47705078 17.55517578 C9.25553629 26.94447961 7.5246496 35.10529851 0.90625 42.12890625 C-5.25614695 47.14238173 -12.29603234 49.62605582 -20.140625 49.9453125 C-21.1203125 49.98720703 -22.1 50.02910156 -23.109375 50.07226562 C-24.12515625 50.11158203 -25.1409375 50.15089844 -26.1875 50.19140625 C-27.734375 50.25618164 -27.734375 50.25618164 -29.3125 50.32226562 C-31.8540387 50.42816307 -34.39567196 50.53024068 -36.9375 50.62890625 C-36.43863281 51.38816406 -35.93976563 52.14742187 -35.42578125 52.9296875 C-33.54484861 56.34103777 -33.87385386 57.94705424 -34.9375 61.62890625 C-36.9375 63.62890625 -36.9375 63.62890625 -40.40625 64.37890625 C-46.04239186 64.23621911 -49.02726556 60.35175788 -52.75 56.51953125 C-53.636875 55.565625 -54.52375 54.61171875 -55.4375 53.62890625 C-56.36269024 52.66354669 -57.28975871 51.6999835 -58.21875 50.73828125 C-60.47742689 48.38549283 -62.71534658 46.01613393 -64.9375 43.62890625 C-62.65105062 38.45126082 -58.67604255 34.92054828 -54.75 30.94140625 C-54.00685547 30.15701172 -53.26371094 29.37261719 -52.49804688 28.56445312 C-46.25656297 22.23544622 -46.25656297 22.23544622 -42.07421875 21.48046875 C-38.9375 21.62890625 -38.9375 21.62890625 -35.9375 23.69140625 C-33.9375 26.62890625 -33.9375 26.62890625 -33.9375 29.75390625 C-34.94075664 32.63826909 -35.75777368 33.62687501 -37.9375 35.62890625 C-34.75017746 35.71687906 -31.56317212 35.76961966 -28.375 35.81640625 C-27.47974609 35.84154297 -26.58449219 35.86667969 -25.66210938 35.89257812 C-18.8314923 35.96763985 -13.94215187 35.15913941 -8.5625 30.62890625 C-6.07878434 27.57202544 -5.81107295 24.93968878 -5.7265625 21.13671875 C-5.68402344 19.83154297 -5.68402344 19.83154297 -5.640625 18.5 C-5.58876962 16.67728332 -5.54443117 14.85433644 -5.5078125 13.03125 C-5.10458706 1.65693249 -5.10458706 1.65693249 0 0 Z " fill="#000000" transform="translate(169.9375,136.37109375)"/>
<path d="M0 0 C2.63061523 1.8359375 2.63061523 1.8359375 5.05859375 4.375 C5.93837891 5.27734375 6.81816406 6.1796875 7.72460938 7.109375 C8.61986328 8.06328125 9.51511719 9.0171875 10.4375 10 C11.36749256 10.96513245 12.29911906 11.92869327 13.23242188 12.890625 C15.50483097 15.24545308 17.75932531 17.61502142 20 20 C18.58683112 23.20887639 16.89115422 25.35522437 14.41015625 27.8203125 C13.70826172 28.52027344 13.00636719 29.22023438 12.28320312 29.94140625 C11.55037109 30.66199219 10.81753906 31.38257812 10.0625 32.125 C9.33353516 32.85332031 8.60457031 33.58164062 7.85351562 34.33203125 C4.98624216 37.17565168 2.36994192 39.75337205 -1 42 C-4.71981784 41.86714936 -7.110434 41.75057131 -10 39.3125 C-11.37694267 36.12832007 -10.980224 34.29075199 -10 31 C-8.4453125 29.31640625 -8.4453125 29.31640625 -7 28 C-10.18732254 27.91202719 -13.37432788 27.85928659 -16.5625 27.8125 C-17.45775391 27.78736328 -18.35300781 27.76222656 -19.27539062 27.73632812 C-26.1060077 27.6612664 -30.99534813 28.46976684 -36.375 33 C-38.85871566 36.05688081 -39.12642705 38.68921747 -39.2109375 42.4921875 C-39.23929688 43.36230469 -39.26765625 44.23242188 -39.296875 45.12890625 C-39.34873038 46.95162293 -39.39306883 48.77456981 -39.4296875 50.59765625 C-39.74089466 59.37629155 -39.74089466 59.37629155 -43 63 C-44.9375 63.62890625 -44.9375 63.62890625 -47 63.5625 C-47.680625 63.56378906 -48.36125 63.56507812 -49.0625 63.56640625 C-51.81367533 62.7621312 -52.50501061 61.40290295 -54 59 C-54.38818359 56.76098633 -54.38818359 56.76098633 -54.3984375 54.33203125 C-54.40230469 53.43806641 -54.40617187 52.54410156 -54.41015625 51.62304688 C-54.39855469 50.69556641 -54.38695313 49.76808594 -54.375 48.8125 C-54.38660156 47.90435547 -54.39820312 46.99621094 -54.41015625 46.06054688 C-54.36972136 36.64595781 -52.14234722 28.35223894 -45.46875 21.40625 C-37.56331664 14.07575725 -29.38453317 13.52066647 -19 13.3125 C-17.84371094 13.27833984 -16.68742187 13.24417969 -15.49609375 13.20898438 C-12.66415954 13.12706892 -9.83251299 13.05773478 -7 13 C-7.48726562 12.5771875 -7.97453125 12.154375 -8.4765625 11.71875 C-10 10 -10 10 -10.375 6.5 C-10 3 -10 3 -8.9375 1.0625 C-5.87238857 -0.61836756 -3.4381854 -0.31621765 0 0 Z " fill="#000000" transform="translate(75,0)"/>
<path d="M0 0 C4.79642058 2.39821029 7.60178971 5.20357942 10 10 C10.80851635 16.36706622 9.83189904 19.85718813 6 25 C1.30338225 28.30898069 -2.44699067 28.52885803 -8 28 C-12.7031093 25.96911189 -15.71789119 22.56421761 -18 18 C-18.38691286 13.35704572 -18.47190735 10.9438147 -16.375 6.75 C-11.64876145 1.27751326 -7.20778812 -1.41272647 0 0 Z M-10 10 C-11.34298533 13.18959016 -11.18559406 14.51963891 -9.9375 17.75 C-8.12509498 20.20957471 -8.12509498 20.20957471 -5.125 21.125 C-1.82886506 21.27561671 -1.82886506 21.27561671 0.9375 18.9375 C3.27561671 16.17113494 3.27561671 16.17113494 3.125 12.875 C1.73614067 9.32569281 0.43987003 8.51018684 -3 7 C-6.0328771 7 -7.59858534 8.21433269 -10 10 Z " fill="#000000" transform="translate(140,122)"/>
<path d="M0 0 C5.10209922 2.69544864 8.17381037 5.5214311 10 11 C10.38981277 15.1320154 10.27518905 17.46020609 8.375 21.1875 C4.64476401 25.60488472 1.8790596 27.76138926 -3.9375 28.5 C-8.54220892 28.23536156 -11.30923721 26.74998012 -15 24 C-18.30898069 19.30338225 -18.52885803 15.55300933 -18 10 C-14.65267969 2.24831085 -8.18877655 -1.11318564 0 0 Z M-7.8125 8 C-10.19973747 9.8871691 -10.19973747 9.8871691 -11.125 12.875 C-11.27561671 16.17113494 -11.27561671 16.17113494 -8.9375 18.9375 C-6.17113494 21.27561671 -6.17113494 21.27561671 -2.875 21.125 C0.1128309 20.19973747 0.1128309 20.19973747 2 17.8125 C3.24729228 14.98763263 3.24729228 14.98763263 2.5625 11.8125 C1.20833333 8.79166667 1.20833333 8.79166667 -1.8125 7.4375 C-4.98763263 6.75270772 -4.98763263 6.75270772 -7.8125 8 Z " fill="#000000" transform="translate(68,122)"/>
<path d="M0 0 C3.6891038 1.67686536 6.33723849 3.95684399 9 7 C10.59121454 11.77364362 10.79879085 16.15016855 8.8125 20.75 C6.31136766 23.85485394 3.57326648 26.21336676 0 28 C-4.64295428 28.38691286 -7.0561853 28.47190735 -11.25 26.375 C-14.7168509 23.3809015 -17.47238201 20.69192851 -18.3828125 16.046875 C-18.6746341 10.94972447 -17.39090366 7.9263095 -14 4 C-9.20708107 -0.13933907 -6.09418213 -0.67713135 0 0 Z M-10 10 C-11.16977494 12.34872531 -11.16977494 12.34872531 -11 15 C-9.67963999 18.2275467 -8.86910604 19.63406062 -5.625 21 C-2.13708083 21 -0.63917477 20.27262272 2 18 C3.33550847 15.15372409 3.33550847 15.15372409 3 12 C0.8744845 9.04089856 0.8744845 9.04089856 -2 7 C-5.66842255 7 -7.10451959 7.79029126 -10 10 Z " fill="#000000" transform="translate(140,86)"/>
<path d="M0 0 C3.10485394 2.50113234 5.46336676 5.23923352 7.25 8.8125 C7.75890436 14.91935229 7.3275461 17.94209772 3.25 22.8125 C0.1884946 26.10078358 -3.17933999 26.53414749 -7.50390625 26.875 C-10.91988788 26.7799466 -12.97041129 25.75174794 -15.75 23.8125 C-19.71024522 19.42412016 -21.05531808 16.82386195 -20.96875 10.83984375 C-20.45525453 6.08084109 -17.21736872 2.84644763 -13.75 -0.1875 C-8.97635638 -1.77871454 -4.59983145 -1.98629085 0 0 Z M-11.6875 7.875 C-14.02561671 10.64136506 -14.02561671 10.64136506 -13.875 13.9375 C-12.94973747 16.9253309 -12.94973747 16.9253309 -10.5625 18.8125 C-7.73763263 20.05979228 -7.73763263 20.05979228 -4.5625 19.375 C-1.54166667 18.02083333 -1.54166667 18.02083333 -0.1875 15 C0.49729228 11.82486737 0.49729228 11.82486737 -0.75 9 C-2.6371691 6.61276253 -2.6371691 6.61276253 -5.625 5.6875 C-8.92113494 5.53688329 -8.92113494 5.53688329 -11.6875 7.875 Z " fill="#000000" transform="translate(106.75,51.1875)"/>
<path d="M0 0 C4.79642058 2.39821029 7.60178971 5.20357942 10 10 C10.8565765 14.37028828 10.36877185 17.26245631 8.375 21.25 C5.3809015 24.7168509 2.69192851 27.47238201 -1.953125 28.3828125 C-7.05027553 28.6746341 -10.0736905 27.39090366 -14 24 C-17.39090366 20.0736905 -18.6746341 17.05027553 -18.3828125 11.953125 C-17.47238201 7.30807149 -14.7168509 4.6190985 -11.25 1.625 C-7.26245631 -0.36877185 -4.37028828 -0.8565765 0 0 Z M-10 10 C-11.16977494 12.34872531 -11.16977494 12.34872531 -11 15 C-9.67963999 18.2275467 -8.86910604 19.63406062 -5.625 21 C-2.17164129 21 -0.64253676 20.20211397 2 18 C3.16977494 15.65127469 3.16977494 15.65127469 3 13 C1.67963999 9.7724533 0.86910604 8.36593938 -2.375 7 C-5.82835871 7 -7.35746324 7.79788603 -10 10 Z " fill="#000000" transform="translate(104,86)"/>
<path d="M0 0 C1.80859375 0.70703125 1.80859375 0.70703125 3.87109375 2.89453125 C5.01988644 6.34090932 4.86222043 8.245115 3.80859375 11.70703125 C2.1104446 14.29894311 0.92659045 14.67111921 -2.06640625 15.58203125 C-5.19140625 15.70703125 -5.19140625 15.70703125 -8.00390625 14.76953125 C-10.74730097 12.18290194 -11.21937386 10.42277436 -11.4453125 6.71875 C-11.19140625 4.70703125 -11.19140625 4.70703125 -9.25390625 1.64453125 C-5.70042185 -0.60359153 -4.0293345 -0.81500717 0 0 Z " fill="#000000" transform="translate(67.19140625,56.29296875)"/>
<path d="M0 0 C2.59393856 2.8371203 3.02858292 4.28542702 2.875 8.125 C1.96408796 11.1179967 1.59191186 12.30185085 -1 14 C-4.09970844 14.85736616 -6.15305467 15.25878885 -9.25 14.3125 C-11.47659001 12.6425575 -12.2018293 11.684756 -13 9 C-12.9375 5.4375 -12.9375 5.4375 -12 2 C-8.1748994 -1.60009469 -4.90216624 -1.4524937 0 0 Z " fill="#000000" transform="translate(141,57)"/>
<path d="M0 0 C2.59191186 1.69814915 2.96408796 2.8820033 3.875 5.875 C4.02858292 9.71457298 3.59393856 11.1628797 1 14 C-2.83754392 15.13705005 -5.08523002 15.31818086 -8.875 14 C-11 12 -11 12 -11.9375 8.5625 C-12.0245098 3.60294118 -12.0245098 3.60294118 -10 1 C-6.61147003 -1.54139747 -3.96754849 -1.09740703 0 0 Z " fill="#000000" transform="translate(104,129)"/>
<path d="M0 0 C2.63183484 1.72430559 2.96429365 2.87090782 3.8125 5.9375 C4.01028636 9.16801051 3.92199114 10.43734514 2 13 C-0.65684561 15.06643547 -2.14302649 14.99749076 -5.5625 14.9375 C-9 14 -9 14 -11 11.875 C-12.31818086 8.08523002 -12.13705005 5.83754392 -11 2 C-7.3487558 -1.33828041 -4.64215415 -1.41282953 0 0 Z " fill="#000000" transform="translate(68,93)"/>
</svg>
