<?xml version="1.0" encoding="UTF-8"?>
<svg version="1.1" xmlns="http://www.w3.org/2000/svg" width="320" height="320">
<path d="M0 0 C5.812591 3.11989851 9.97969117 8.65873857 12.0625 14.84765625 C13.79053452 23.31368584 13.30740376 31.54664218 9.56640625 39.31640625 C9.17453125 40.14140625 8.78265625 40.96640625 8.37890625 41.81640625 C8.11078125 42.31140625 7.84265625 42.80640625 7.56640625 43.31640625 C8.88640625 44.63640625 10.20640625 45.95640625 11.56640625 47.31640625 C10.90640625 48.96640625 10.24640625 50.61640625 9.56640625 52.31640625 C4.89348239 51.68493005 4.89348239 51.68493005 3.1484375 49.71875 C2.62636719 49.25597656 2.10429687 48.79320312 1.56640625 48.31640625 C-0.38117243 48.43401557 -0.38117243 48.43401557 -2.43359375 49.19140625 C-9.47029337 51.01065054 -16.42234421 50.85722519 -22.80859375 47.12890625 C-29.24792675 42.48047159 -32.162285 38.00590301 -33.9921875 30.3203125 C-35.06117961 23.04549008 -34.49262978 15.61087029 -30.80859375 9.13671875 C-23.27442691 -0.83749076 -11.91007374 -3.34552633 0 0 Z M-21.43359375 9.31640625 C-25.77568207 14.77185055 -26.67628424 20.40458114 -26.43359375 27.31640625 C-25.39108689 33.29467565 -23.3413669 37.5499757 -18.43359375 41.31640625 C-14.04166999 43.37220035 -11.12490311 43.43338467 -6.43359375 42.31640625 C-7.09359375 41.32640625 -7.75359375 40.33640625 -8.43359375 39.31640625 C-8.05859375 37.12890625 -8.05859375 37.12890625 -7.43359375 35.31640625 C-3.85783479 35.31640625 -2.3806344 36.40481232 0.56640625 38.31640625 C4.21834529 33.71178746 4.74179023 30.34261006 4.81640625 24.50390625 C4.8421875 23.30121094 4.86796875 22.09851563 4.89453125 20.859375 C4.40210546 15.54234889 2.5478509 12.36795409 -1.05859375 8.50390625 C-7.51768742 3.57964672 -15.23052088 4.47464123 -21.43359375 9.31640625 Z " fill="#E32228" transform="translate(229.43359375,110.68359375)"/>
<path d="M0 0 C2.31 0 4.62 0 7 0 C7.33 3.3 7.66 6.6 8 10 C12.29 10 16.58 10 21 10 C24.79615009 18.17632326 27.87478574 26.54771598 31 35 C33.97 26.75 36.94 18.5 40 10 C42.31 10 44.62 10 47 10 C46.34686369 15.31816769 44.69129583 19.9693743 42.796875 24.94140625 C42.47720764 25.78670395 42.15754028 26.63200165 41.82818604 27.50291443 C41.15203509 29.28330343 40.4727521 31.06250574 39.79052734 32.84057617 C38.7539823 35.55208267 37.73806633 38.27075473 36.72265625 40.99023438 C36.06115098 42.72443763 35.39843066 44.45817799 34.734375 46.19140625 C34.43521179 46.99985489 34.13604858 47.80830353 33.82781982 48.64125061 C31.96702887 53.41427225 30.06491837 56.67441865 26 60 C23.54296875 60.48828125 23.54296875 60.48828125 21.1875 60.3125 C20.39730469 60.26738281 19.60710937 60.22226563 18.79296875 60.17578125 C17.90544922 60.08876953 17.90544922 60.08876953 17 60 C17 57.69 17 55.38 17 53 C20.465 52.505 20.465 52.505 24 52 C26.0765308 47.8469384 25.98410964 45.48792359 25 41 C24.29355674 38.96176489 23.52841731 36.94320201 22.71484375 34.9453125 C22.26689453 33.83671875 21.81894531 32.728125 21.35742188 31.5859375 C20.65456055 29.87277344 20.65456055 29.87277344 19.9375 28.125 C19.22883789 26.37703125 19.22883789 26.37703125 18.50585938 24.59375 C17.34267209 21.72690456 16.17389942 18.86247193 15 16 C14.67 16.33 14.34 16.66 14 17 C11.69 17 9.38 17 7 17 C7.33 24.26 7.66 31.52 8 39 C9.98 39.33 11.96 39.66 14 40 C14 41.98 14 43.96 14 46 C12.23050905 46.10815225 10.45912513 46.18566083 8.6875 46.25 C7.70136719 46.29640625 6.71523437 46.3428125 5.69921875 46.390625 C3 46 3 46 1.34960938 44.34179688 C-0.34340636 41.40413282 -0.34466221 39.51793115 -0.29296875 36.140625 C-0.28330078 35.02558594 -0.27363281 33.91054687 -0.26367188 32.76171875 C-0.23853516 31.60285156 -0.21339844 30.44398438 -0.1875 29.25 C-0.17396484 28.07566406 -0.16042969 26.90132812 -0.14648438 25.69140625 C-0.1111478 22.79380702 -0.06180979 19.89713573 0 17 C-1.98 17 -3.96 17 -6 17 C-6 15.02 -6 13.04 -6 11 C-4.35 10.67 -2.7 10.34 -1 10 C-0.67 6.7 -0.34 3.4 0 0 Z " fill="#000000" transform="translate(148,113)"/>
<path d="M0 0 C0.68578125 -0.01998047 1.3715625 -0.03996094 2.078125 -0.06054688 C8.08649006 -0.0548137 11.58534173 2.10610581 15.8125 6.1875 C17.58155092 9.53938595 17.68613125 12.67107502 18 16.4375 C15.36 16.4375 12.72 16.4375 10 16.4375 C9.5875 15.32375 9.175 14.21 8.75 13.0625 C7.74907249 10.7687078 7.20477945 9.60571169 5.25 8 C0.86981475 6.90495369 -2.71234885 6.94435701 -6.9375 8.5625 C-9.34964956 10.33422273 -9.34964956 10.33422273 -9.3125 13.625 C-9.209375 14.553125 -9.10625 15.48125 -9 16.4375 C-3.3748086 19.49788234 2.25161315 20.8789775 8.44140625 22.375 C13.09781031 23.76527652 16.07283655 25.06274041 18.8125 29.125 C20.23839693 33.10250196 20.73418204 36.26601116 20 40.4375 C17.57446674 45.48260918 14.25669485 48.5489837 9 50.4375 C1.6204069 52.08998557 -5.1216427 51.69044154 -12 48.4375 C-17.88092467 43.53672944 -19.28041591 39.75327154 -20 32.4375 C-17.36 32.4375 -14.72 32.4375 -12 32.4375 C-11.690625 33.695625 -11.38125 34.95375 -11.0625 36.25 C-10.07510059 38.8598867 -9.4463779 40.1371422 -7.11328125 41.70703125 C-1.51081434 43.84828824 3.43372306 43.66165717 9 41.4375 C11.28056299 39.55375538 11.28056299 39.55375538 11.4375 36.5 C11.34662378 33.34374729 11.34662378 33.34374729 9.03515625 31.89453125 C4.4205547 29.67928495 -0.4340072 28.65401133 -5.40625 27.5078125 C-10.58105172 26.19686273 -13.51909802 24.72064111 -17 20.4375 C-18.73836852 16.96076295 -18.45436319 13.23879202 -18 9.4375 C-14.22458204 1.59624732 -8.2652589 -0.08544911 0 0 Z " fill="#E32228" transform="translate(264,109.5625)"/>
<path d="M0 0 C1.98 0 3.96 0 6 0 C6.66 0.66 7.32 1.32 8 2 C8.54785156 1.67773438 9.09570312 1.35546875 9.66015625 1.0234375 C13.93022646 -0.84427268 18.43536014 -0.54856948 23 0 C27.19102344 2.30933944 28.55697205 4.53847385 30 9 C30.22705078 12.04614258 30.22705078 12.04614258 30.1953125 15.39453125 C30.18886719 16.59658203 30.18242188 17.79863281 30.17578125 19.03710938 C30.15902344 20.28298828 30.14226563 21.52886719 30.125 22.8125 C30.11597656 24.07771484 30.10695313 25.34292969 30.09765625 26.64648438 C30.07412394 29.76451564 30.04124545 32.88216097 30 36 C27.69 36 25.38 36 23 36 C22.98018066 35.3294458 22.96036133 34.6588916 22.93994141 33.96801758 C22.84440285 30.91579839 22.73484055 27.86423659 22.625 24.8125 C22.5940625 23.75740234 22.563125 22.70230469 22.53125 21.61523438 C22.49257813 20.59365234 22.45390625 19.57207031 22.4140625 18.51953125 C22.36693115 17.11344604 22.36693115 17.11344604 22.31884766 15.67895508 C21.97341833 12.77666105 21.34531114 10.59436542 20 8 C16.39452585 6.71805363 14.69609086 6.69062629 11.1875 8.25 C8.736091 9.88630821 8.736091 9.88630821 8 13 C7.85164052 14.77166975 7.75229982 16.54767612 7.68359375 18.32421875 C7.64169922 19.35224609 7.59980469 20.38027344 7.55664062 21.43945312 C7.51732422 22.51130859 7.47800781 23.58316406 7.4375 24.6875 C7.39431641 25.77095703 7.35113281 26.85441406 7.30664062 27.97070312 C7.20053162 30.64700791 7.09847639 33.32340526 7 36 C4.69 36 2.38 36 0 36 C0 24.12 0 12.24 0 0 Z " fill="#000000" transform="translate(30,123)"/>
<path d="M0 0 C1.2684375 0.12375 1.2684375 0.12375 2.5625 0.25 C3.2225 1.24 3.8825 2.23 4.5625 3.25 C5.11164063 2.7653125 5.66078125 2.280625 6.2265625 1.78125 C10.3403728 -0.91542833 14.82551332 -0.49614385 19.5625 0.25 C23.23253939 2.10635714 25.24343126 4.29279377 26.5625 8.25 C26.6458804 10.38794525 26.66983747 12.52842009 26.66015625 14.66796875 C26.65693359 15.92158203 26.65371094 17.17519531 26.65039062 18.46679688 C26.64201172 19.77712891 26.63363281 21.08746094 26.625 22.4375 C26.61998317 23.77278481 26.61542059 25.10807141 26.61132812 26.44335938 C26.59952695 29.71228473 26.58306297 32.98111991 26.5625 36.25 C24.2525 36.25 21.9425 36.25 19.5625 36.25 C19.53744385 35.50838623 19.5123877 34.76677246 19.48657227 34.00268555 C19.37063868 30.64744672 19.24790015 27.29249056 19.125 23.9375 C19.08568359 22.77025391 19.04636719 21.60300781 19.00585938 20.40039062 C18.96396484 19.28212891 18.92207031 18.16386719 18.87890625 17.01171875 C18.84224854 15.98006592 18.80559082 14.94841309 18.76782227 13.88549805 C18.66088758 11.14251742 18.66088758 11.14251742 17.5625 8.25 C12.89756566 7.3014866 12.89756566 7.3014866 8.25 7.875 C5.39400219 10.20210933 4.68416223 13.26282182 4.24365234 16.8371582 C4.21223145 17.73265381 4.18081055 18.62814941 4.1484375 19.55078125 C4.10976562 20.52724609 4.07109375 21.50371094 4.03125 22.50976562 C4.0003125 23.51716797 3.969375 24.52457031 3.9375 25.5625 C3.89882812 26.58923828 3.86015625 27.61597656 3.8203125 28.67382812 C3.72635103 31.19904265 3.6406846 33.72425592 3.5625 36.25 C1.2525 36.25 -1.0575 36.25 -3.4375 36.25 C-3.46215098 31.28377651 -3.48033649 26.31758834 -3.49243164 21.35131836 C-3.4974719 19.66055684 -3.50430405 17.96979971 -3.51293945 16.27905273 C-3.52501857 13.85399293 -3.53073123 11.42899056 -3.53515625 9.00390625 C-3.54031754 8.24348526 -3.54547882 7.48306427 -3.55079651 6.69960022 C-3.55099238 4.8826743 -3.49947277 3.06586873 -3.4375 1.25 C-2.4375 0.25 -2.4375 0.25 0 0 Z " fill="#000000" transform="translate(100.4375,122.75)"/>
<path d="M0 0 C0 2.31 0 4.62 0 7 C-2.31 7 -4.62 7 -7 7 C-7 8.98 -7 10.96 -7 13 C-6.030625 12.979375 -5.06125 12.95875 -4.0625 12.9375 C-1 13 -1 13 0 14 C0.04080783 15.99958364 0.04254356 18.00045254 0 20 C-2.31 20 -4.62 20 -7 20 C-7 29.57 -7 39.14 -7 49 C-9.31 49 -11.62 49 -14 49 C-14 39.43 -14 29.86 -14 20 C-15.98 20 -17.96 20 -20 20 C-20 17.69 -20 15.38 -20 13 C-18.02 13 -16.04 13 -14 13 C-14.103125 11.783125 -14.20625 10.56625 -14.3125 9.3125 C-14.28822937 5.89640838 -14.01403171 5.02172652 -12.0625 2 C-7.95087582 -0.68514232 -4.77247406 -0.46788961 0 0 Z " fill="#000000" transform="translate(82,110)"/>
<path d="M0 0 C2.31 0 4.62 0 7 0 C7 16.17 7 32.34 7 49 C4.69 49 2.38 49 0 49 C0 32.83 0 16.66 0 0 Z " fill="#000000" transform="translate(16,110)"/>
<path d="M0 0 C1.32 0.33 2.64 0.66 4 1 C4 2.32 4 3.64 4 5 C5.98 5 7.96 5 10 5 C11.32 8.3 12.64 11.6 14 15 C15.32 11.7 16.64 8.4 18 5 C19.32 5 20.64 5 22 5 C16.76595745 24.23404255 16.76595745 24.23404255 13 28 C11.33382885 28.04063832 9.66611905 28.042721 8 28 C8 27.01 8 26.02 8 25 C8.99 24.67 9.98 24.34 11 24 C10.43250833 18.55207995 9.24926583 14.01759301 7 9 C6.01 8.67 5.02 8.34 4 8 C4 11.63 4 15.26 4 19 C4.99 19 5.98 19 7 19 C6.67 20.32 6.34 21.64 6 23 C1.125 22.125 1.125 22.125 0 21 C-0.07258946 18.81360547 -0.08373783 16.62499611 -0.0625 14.4375 C-0.05347656 13.23996094 -0.04445313 12.04242188 -0.03515625 10.80859375 C-0.02355469 9.88175781 -0.01195313 8.95492187 0 8 C-0.99 8 -1.98 8 -3 8 C-3 12.62 -3 17.24 -3 22 C-4.32 22 -5.64 22 -7 22 C-7 16.39 -7 10.78 -7 5 C-4.69 5 -2.38 5 0 5 C0 3.35 0 1.7 0 0 Z " fill="#000000" transform="translate(85,182)"/>
<path d="M0 0 C3.03507549 2.54290108 4.5002374 5.11767047 5.3125 8.9375 C5.36723687 13.64487063 4.9464829 16.98652565 2.3125 20.9375 C2.9725 20.9375 3.6325 20.9375 4.3125 20.9375 C4.3125 22.2575 4.3125 23.5775 4.3125 24.9375 C3.301875 24.7725 2.29125 24.6075 1.25 24.4375 C-2.62608304 23.83854888 -2.62608304 23.83854888 -6.3125 24.0625 C-10.10519984 23.92202964 -11.74600026 23.29069979 -14.6875 20.9375 C-17.59267209 16.29331646 -17.4526086 11.2320515 -16.6875 5.9375 C-13.26663158 -0.85160809 -6.95002223 -2.74768321 0 0 Z M-11.5625 3.9375 C-13.34494829 7.10629696 -13.82721029 10.35393105 -13.6875 13.9375 C-12.54975672 16.36813337 -11.56936104 18.05563896 -9.6875 19.9375 C-8.02132885 19.97813832 -6.35361905 19.980221 -4.6875 19.9375 C-4.6875 18.9475 -4.6875 17.9575 -4.6875 16.9375 C-3.3675 17.2675 -2.0475 17.5975 -0.6875 17.9375 C1.8040904 14.2001144 1.77043285 12.36418417 1.3125 7.9375 C-0.076589 4.88836064 -0.076589 4.88836064 -2.6875 2.9375 C-6.13645842 2.45343566 -8.44729585 2.27605779 -11.5625 3.9375 Z " fill="#000000" transform="translate(32.6875,181.0625)"/>
<path d="M0 0 C2.31 0 4.62 0 7 0 C7 11.88 7 23.76 7 36 C4.69 36 2.38 36 0 36 C0 24.12 0 12.24 0 0 Z " fill="#000000" transform="translate(84,123)"/>
<path d="M0 0 C1.98 0 3.96 0 6 0 C7 1 7 1 7.11352539 4.32641602 C7.11336629 5.80225556 7.10767314 7.27810069 7.09765625 8.75390625 C7.0962413 9.52935287 7.09482635 10.3047995 7.09336853 11.10374451 C7.08775345 13.59003494 7.07519846 16.0762366 7.0625 18.5625 C7.05748694 20.24413933 7.0529237 21.92578006 7.04882812 23.60742188 C7.03777913 27.73831566 7.02050445 31.86914276 7 36 C4.69 36 2.38 36 0 36 C0 24.12 0 12.24 0 0 Z " fill="#000000" transform="translate(133,123)"/>
<path d="M0 0 C0.80824219 0.10183594 1.61648437 0.20367187 2.44921875 0.30859375 C3.06410156 0.39238281 3.67898437 0.47617188 4.3125 0.5625 C4.39394943 3.27144767 4.45320614 5.97791263 4.5 8.6875 C4.52513672 9.44804687 4.55027344 10.20859375 4.57617188 10.9921875 C4.64047453 15.9649261 3.96844442 19.19866482 1.3125 23.5625 C-2.06635612 23.84776928 -5.32041991 24.02337248 -8.6875 23.5625 C-10.8125 21.0625 -10.8125 21.0625 -11.6875 18.5625 C-11.0275 17.9025 -10.3675 17.2425 -9.6875 16.5625 C-10.3475 15.5725 -11.0075 14.5825 -11.6875 13.5625 C-12.37623936 9.21383171 -12.49927729 5.68219282 -9.875 2.0625 C-6.39039923 -0.32694053 -4.06460718 -0.53016615 0 0 Z M-6.6875 3.5625 C-9.02046251 6.38967213 -9.02046251 6.38967213 -8.4375 9.625 C-7.9281756 12.661959 -7.9281756 12.661959 -5.6875 14.5625 C-3.08469432 14.24208603 -3.08469432 14.24208603 -0.6875 13.5625 C0.51238045 8.28050407 0.51238045 8.28050407 -1.6875 3.5625 C-4.1875 3.0625 -4.1875 3.0625 -6.6875 3.5625 Z M-7.6875 17.5625 C-7.3575 18.5525 -7.0275 19.5425 -6.6875 20.5625 C-4.7075 20.5625 -2.7275 20.5625 -0.6875 20.5625 C-0.3575 19.2425 -0.0275 17.9225 0.3125 16.5625 C-2.34526566 16.5625 -5.06173517 17.18057057 -7.6875 17.5625 Z " fill="#000000" transform="translate(223.6875,186.4375)"/>
<path d="M0 0 C2.413125 -0.0825 4.82625 -0.165 7.3125 -0.25 C8.06829346 -0.28641602 8.82408691 -0.32283203 9.6027832 -0.36035156 C12.78572953 -0.41320885 14.55470852 -0.38453046 17.00390625 1.73046875 C18.17075694 4.38905798 18.13345356 5.72763154 17.625 8.5625 C17.08186534 11.72013584 16.95337128 12.86011383 18 16 C18.12781786 18.67394964 18.04391871 21.32095857 18 24 C16.68 23.67 15.36 23.34 14 23 C13.67 20.03 13.34 17.06 13 14 C9.7 14 6.4 14 3 14 C3 17.3 3 20.6 3 24 C2.01 24 1.02 24 0 24 C0 16.08 0 8.16 0 0 Z M3 3 C3 5.31 3 7.62 3 10 C4.64574566 10.02688151 6.29161413 10.04634123 7.9375 10.0625 C9.31228516 10.07990234 9.31228516 10.07990234 10.71484375 10.09765625 C12.96593327 10.25949049 12.96593327 10.25949049 14 9 C14.04063832 7.33382885 14.042721 5.66611905 14 4 C11.59454362 2.79727181 10.05003047 2.89928528 7.375 2.9375 C6.55773437 2.94652344 5.74046875 2.95554688 4.8984375 2.96484375 C4.27195312 2.97644531 3.64546875 2.98804688 3 3 Z " fill="#000000" transform="translate(117,181)"/>
<path d="M0 0 C0.86625 -0.20625 1.7325 -0.4125 2.625 -0.625 C5 -1 5 -1 7.62890625 -0.00390625 C10 2 10 2 10.48828125 5.57421875 C10.45514248 6.94616376 10.39563595 8.3176753 10.3125 9.6875 C10.28994141 10.38939453 10.26738281 11.09128906 10.24414062 11.81445312 C10.18531647 13.5438833 10.09563389 15.27221438 10 17 C9.01 17.33 8.02 17.66 7 18 C6.67 13.05 6.34 8.1 6 3 C4.35 3 2.7 3 1 3 C0.67 7.95 0.34 12.9 0 18 C-0.99 18 -1.98 18 -3 18 C-3.33 13.05 -3.66 8.1 -4 3 C-5.65 3.66 -7.3 4.32 -9 5 C-9.33 9.29 -9.66 13.58 -10 18 C-11.32 17.67 -12.64 17.34 -14 17 C-14 11.39 -14 5.78 -14 0 C-8.28698249 -0.81614536 -5.39656344 -0.79949088 0 0 Z " fill="#000000" transform="translate(184,187)"/>
<path d="M0 0 C0.99 0 1.98 0 3 0 C3 7.59 3 15.18 3 23 C-4.30769231 24.46153846 -4.30769231 24.46153846 -8 24 C-11.02883418 21.95882914 -12.70071921 20.46257223 -13.44921875 16.8046875 C-13.63220311 12.98094538 -13.48252717 10.71485507 -11.3125 7.5 C-8.763479 5.84658097 -7.02184987 5.23244999 -4 5 C-3.01 5.33 -2.02 5.66 -1 6 C-1.020625 5.195625 -1.04125 4.39125 -1.0625 3.5625 C-1 1 -1 1 0 0 Z M-7 9 C-9.04331967 11.07097697 -9.04331967 11.07097697 -10 14 C-9.6039603 17.27242264 -9.6039603 17.27242264 -8 20 C-6.12042756 21.1576585 -6.12042756 21.1576585 -4 21 C-3.01 20.34 -2.02 19.68 -1 19 C-0.56172799 17.09542071 -0.56172799 17.09542071 -0.6875 15 C-0.69136719 14.29875 -0.69523437 13.5975 -0.69921875 12.875 C-0.85087054 10.7583423 -0.85087054 10.7583423 -3 9 C-4.32 9 -5.64 9 -7 9 Z " fill="#000000" transform="translate(281,181)"/>
<path d="M0 0 C2 2 2 2 2.1953125 4.8203125 C2.16050781 6.45613281 2.16050781 6.45613281 2.125 8.125 C2.10695312 9.22070312 2.08890625 10.31640625 2.0703125 11.4453125 C2.04710937 12.28835937 2.02390625 13.13140625 2 14 C2.66 14 3.32 14 4 14 C4 14.99 4 15.98 4 17 C3.030625 16.979375 2.06125 16.95875 1.0625 16.9375 C-1.87465895 16.64381501 -1.87465895 16.64381501 -3 18 C-6.62516277 18.40279586 -8.39766602 18.41700045 -11.4375 16.3125 C-13 14 -13 14 -12.9375 11.375 C-12 9 -12 9 -9 7 C-7.0103005 6.60986284 -5.00980131 6.26797351 -3 6 C-2.67 5.01 -2.34 4.02 -2 3 C-3.98 3 -5.96 3 -8 3 C-8 3.99 -8 4.98 -8 6 C-9.32 6 -10.64 6 -12 6 C-11.13088303 3.24779627 -10.5527839 1.4343302 -8.25 -0.375 C-5.1987149 -1.22257919 -3.04017602 -0.7930894 0 0 Z M-9 11 C-9 11.99 -9 12.98 -9 14 C-7.15274948 14.69159401 -7.15274948 14.69159401 -5 15 C-4.01 14.34 -3.02 13.68 -2 13 C-2 12.01 -2 11.02 -2 10 C-5.62885324 9.84850702 -5.62885324 9.84850702 -9 11 Z " fill="#000000" transform="translate(208,187)"/>
<path d="M0 0 C2.63948533 0.58331168 3.5497108 1.28056252 5.12109375 3.46875 C5.79933783 6.53780448 5.70434507 9.38585015 5.12109375 12.46875 C3.05859375 15.09375 3.05859375 15.09375 0.12109375 16.46875 C-3.34951854 16.40891186 -5.75945053 16.14042343 -8.75390625 14.34375 C-10.55057968 11.34929428 -10.81906811 8.93936229 -10.87890625 5.46875 C-8.38064639 0.13155848 -5.39889429 -0.072835 0 0 Z M-6.87890625 4.46875 C-8.17524246 5.53520115 -8.17524246 5.53520115 -7.94140625 8.03125 C-7.92078125 8.835625 -7.90015625 9.64 -7.87890625 10.46875 C-6.88890625 10.96375 -6.88890625 10.96375 -5.87890625 11.46875 C-5.87890625 9.15875 -5.87890625 6.84875 -5.87890625 4.46875 C-6.20890625 4.46875 -6.53890625 4.46875 -6.87890625 4.46875 Z M2.12109375 6.46875 C1.13109375 7.95375 1.13109375 7.95375 0.12109375 9.46875 C0.78109375 10.12875 1.44109375 10.78875 2.12109375 11.46875 C2.45109375 9.81875 2.78109375 8.16875 3.12109375 6.46875 C2.79109375 6.46875 2.46109375 6.46875 2.12109375 6.46875 Z M-2.87890625 10.46875 C-2.87890625 11.45875 -2.87890625 12.44875 -2.87890625 13.46875 C-2.21890625 13.13875 -1.55890625 12.80875 -0.87890625 12.46875 C-1.53890625 11.80875 -2.19890625 11.14875 -2.87890625 10.46875 Z " fill="#000000" transform="translate(298.87890625,109.53125)"/>
<path d="M0 0 C2.37427574 3.30815752 2.38665251 6.77754191 2.625 10.75 C2.69976562 11.92046875 2.77453125 13.0909375 2.8515625 14.296875 C2.90054688 15.18890625 2.94953125 16.0809375 3 17 C0.89807303 17.24887295 -1.20673964 17.4734719 -3.3125 17.6875 C-4.48425781 17.81511719 -5.65601563 17.94273437 -6.86328125 18.07421875 C-10 18 -10 18 -11.890625 16.67578125 C-13.48157212 14.27255478 -13.49312145 12.81783687 -13 10 C-10.11139055 6.88918982 -7.11345859 6.46743848 -3 6 C-3 5.34 -3 4.68 -3 4 C-4.65 4 -6.3 4 -8 4 C-8.33 4.66 -8.66 5.32 -9 6 C-9.99 6 -10.98 6 -12 6 C-11.52 1.44 -11.52 1.44 -9.375 -0.375 C-5.9344103 -1.28041834 -3.42148782 -0.8870524 0 0 Z M-9 11 C-8.67 12.32 -8.34 13.64 -8 15 C-6.35 14.67 -4.7 14.34 -3 14 C-2.67 12.35 -2.34 10.7 -2 9 C-4.35287614 9 -6.79373224 10.24893012 -9 11 Z " fill="#000000" transform="translate(68,187)"/>
<path d="M0 0 C2.3125 2.25 2.3125 2.25 4 5 C4 6.65 4 8.3 4 10 C0.04 10 -3.92 10 -8 10 C-7.67 11.32 -7.34 12.64 -7 14 C-4.02934491 13.65772428 -4.02934491 13.65772428 -1 13 C-0.67 12.34 -0.34 11.68 0 11 C1.32 11 2.64 11 4 11 C2.75023244 14.65316671 2.32901247 15.78065836 -1 18 C-3.9375 18.375 -3.9375 18.375 -7 18 C-9.30275556 16.1329009 -10.67823871 14.64352259 -12 12 C-12.39069343 7.85864965 -12.43382227 5.68813188 -10.1875 2.125 C-6.81657329 -1.14961451 -4.34903631 -1.48503679 0 0 Z M-6 3 C-6.66 4.32 -7.32 5.64 -8 7 C-5.36 7 -2.72 7 0 7 C-0.66 5.68 -1.32 4.36 -2 3 C-3.32 3 -4.64 3 -6 3 Z " fill="#000000" transform="translate(148,187)"/>
<path d="M0 0 C2.67774326 2.40996893 2.97847801 3.62695218 3.1875 7.25 C3.0946875 8.61125 3.0946875 8.61125 3 10 C-2.445 10.495 -2.445 10.495 -8 11 C-7.01 11.99 -6.02 12.98 -5 14 C-3.68 14 -2.36 14 -1 14 C-0.67 13.01 -0.34 12.02 0 11 C0.99 11 1.98 11 3 11 C2.60856977 13.27029534 2.11258722 14.83408198 0.8125 16.75 C-1.93032186 18.64160128 -3.7411919 18.45623313 -7 18 C-10.34289384 16.06855022 -11.70135072 14.8399511 -13 11.1875 C-13 7.09632492 -11.98498 4.55927449 -10 1 C-6.75412999 -1.68623725 -3.90741078 -1.16390959 0 0 Z M-7 3 C-7.66 4.32 -8.32 5.64 -9 7 C-6.03 7 -3.06 7 0 7 C-0.66 5.68 -1.32 4.36 -2 3 C-3.65 3 -5.3 3 -7 3 Z " fill="#000000" transform="translate(264,187)"/>
<path d="M0 0 C1.32 0 2.64 0 4 0 C4 4.62 4 9.24 4 14 C5.98 14 7.96 14 10 14 C10.33 9.38 10.66 4.76 11 0 C12.32 0 13.64 0 15 0 C15 5.61 15 11.22 15 17 C4.71770335 18.46889952 4.71770335 18.46889952 1.65625 16.46875 C-0.60426124 13.09930871 -0.3988293 10.76839108 -0.25 6.75 C-0.21390625 5.48671875 -0.1778125 4.2234375 -0.140625 2.921875 C-0.09421875 1.95765625 -0.0478125 0.9934375 0 0 Z " fill="#000000" transform="translate(39,187)"/>
<path d="M0 0 C2.49118953 3.7367843 2.2065226 5.74451819 2.125 10.1875 C2.10695312 11.45980469 2.08890625 12.73210937 2.0703125 14.04296875 C2.03550781 15.50669922 2.03550781 15.50669922 2 17 C1.01 17 0.02 17 -1 17 C-1.33 12.38 -1.66 7.76 -2 3 C-3.65 3.33 -5.3 3.66 -7 4 C-8.28446919 6.56893838 -8.32977144 8.76576337 -8.5625 11.625 C-8.64628906 12.62789062 -8.73007813 13.63078125 -8.81640625 14.6640625 C-8.87699219 15.43492187 -8.93757812 16.20578125 -9 17 C-9.99 17 -10.98 17 -12 17 C-12 11.39 -12 5.78 -12 0 C-4.55172414 -1.24137931 -4.55172414 -1.24137931 0 0 Z " fill="#000000" transform="translate(248,187)"/>
<path d="M0 0 C1.32 0 2.64 0 4 0 C4 7.59 4 15.18 4 23 C2.68 23 1.36 23 0 23 C0 15.41 0 7.82 0 0 Z " fill="#000000" transform="translate(72,181)"/>
<path d="M0 0 C0.99 0 1.98 0 3 0 C3 5.61 3 11.22 3 17 C2.01 17 1.02 17 0 17 C0 11.39 0 5.78 0 0 Z " fill="#000000" transform="translate(230,187)"/>
<path d="M0 0 C0.99 0 1.98 0 3 0 C3 5.61 3 11.22 3 17 C2.01 17 1.02 17 0 17 C0 11.39 0 5.78 0 0 Z " fill="#000000" transform="translate(165,187)"/>
<path d="M0 0 C2.64 0 5.28 0 8 0 C8 1.32 8 2.64 8 4 C5.03 4 2.06 4 -1 4 C-0.67 2.68 -0.34 1.36 0 0 Z " fill="#000000" transform="translate(154,193)"/>
<path d="M0 0 C1.32 0 2.64 0 4 0 C3.67 1.65 3.34 3.3 3 5 C2.01 5 1.02 5 0 5 C0 3.35 0 1.7 0 0 Z " fill="#000000" transform="translate(78,181)"/>
<path d="M0 0 C0.99 0 1.98 0 3 0 C3 1.65 3 3.3 3 5 C2.01 5 1.02 5 0 5 C0 3.35 0 1.7 0 0 Z " fill="#000000" transform="translate(230,181)"/>
<path d="M0 0 C0.99 0 1.98 0 3 0 C3 1.65 3 3.3 3 5 C2.01 5 1.02 5 0 5 C0 3.35 0 1.7 0 0 Z " fill="#000000" transform="translate(165,181)"/>
</svg>
