<?xml version="1.0" encoding="UTF-8"?>
<svg version="1.1" xmlns="http://www.w3.org/2000/svg" width="640" height="559">
<path d="M0 0 C1.90108473 -0.01169993 1.90108473 -0.01169993 3.84057522 -0.02363622 C7.33339246 -0.04438621 10.82552107 -0.03424942 14.31833982 -0.01870513 C18.09485101 -0.00734642 21.87124753 -0.02487661 25.6477356 -0.03860474 C33.03594997 -0.06079373 40.42390983 -0.05605542 47.81213403 -0.04154153 C53.81869606 -0.03023214 59.82518696 -0.02872573 65.83175659 -0.03416061 C67.11593638 -0.03530986 67.11593638 -0.03530986 68.42605919 -0.03648233 C70.16545655 -0.03808101 71.9048539 -0.03970208 73.64425123 -0.04134528 C89.940087 -0.05559007 106.23578196 -0.03923003 122.53159463 -0.01234345 C136.50266028 0.00999419 150.47351818 0.0061137 164.44458008 -0.01693726 C180.68360468 -0.04371774 196.92250597 -0.05421689 213.16154957 -0.03887594 C214.89441234 -0.03728326 216.62727513 -0.0357114 218.36013794 -0.03416061 C219.63891372 -0.03300355 219.63891372 -0.03300355 220.94352335 -0.03182311 C226.94023351 -0.02751285 232.93686522 -0.03477809 238.93356323 -0.04655838 C246.24537535 -0.06060694 253.55691921 -0.05673414 260.86870074 -0.03015466 C264.59664971 -0.01704792 268.32415204 -0.01180974 272.05209732 -0.02840042 C276.09908224 -0.04613805 280.14494747 -0.02490631 284.19189453 0 C285.36213889 -0.01115361 286.53238325 -0.02230722 287.73808956 -0.03379881 C296.48358693 0.07047207 302.80206625 2.30092118 309.71704102 7.67007446 C318.75836557 17.76135929 318.52602466 29.78091463 318.34472656 42.6847229 C318.33399415 44.26281911 318.32462357 45.84092508 318.3164978 47.41903687 C318.29082783 51.66632215 318.24631486 55.91321792 318.19819999 60.16030025 C318.15103871 64.61246951 318.12150919 69.06475647 318.09004211 73.51705933 C318.02792655 81.93163027 317.95014732 90.34597921 317.86662179 98.76036191 C317.77223318 108.34682085 317.69548685 117.93339625 317.62016046 127.52002096 C317.46493618 147.22517771 317.28775786 166.93008584 317.09594727 186.63491821 C318.1010434 186.62603577 319.10613953 186.61715332 320.14169312 186.60800171 C329.64514341 186.52667634 339.14852247 186.46683829 348.65224266 186.42766953 C353.53743444 186.40685498 358.42234378 186.37865019 363.30737305 186.3331604 C368.02769343 186.28948286 372.74774329 186.26573505 377.46825027 186.25540924 C379.26307047 186.24805701 381.05787699 186.23370033 382.85258102 186.21199799 C394.71703848 186.07432187 405.36525045 186.21603466 414.56079102 194.80288696 C420.94915889 202.42666441 422.22386681 210.81669641 422.21620178 220.51295471 C422.21705621 221.16822051 422.21791063 221.82348631 422.21879095 222.49860865 C422.22042605 224.67420076 422.21495695 226.84971418 422.20947266 229.02529907 C422.20919033 230.59281411 422.2093494 232.16032928 422.20991516 233.72784424 C422.21020137 237.96904166 422.20433313 242.21021064 422.1973412 246.45140147 C422.19107832 250.88900148 422.19050155 255.32660219 422.1893158 259.76420593 C422.18621113 268.16110493 422.1780094 276.55799086 422.16796631 284.95488411 C422.15677832 294.51713599 422.15128795 304.07938851 422.14627087 313.64164531 C422.13582606 333.3060769 422.11824337 352.97049673 422.09594727 372.63491821 C423.64117569 372.61826363 423.64117569 372.61826363 425.21762085 372.60127258 C434.9564948 372.49962972 444.69526022 372.42482524 454.43454552 372.37585735 C459.44088332 372.3498354 464.44679071 372.31457341 469.45288086 372.25772095 C474.2899253 372.20313609 479.12655743 372.17344208 483.96388626 372.160532 C485.80338653 372.15133943 487.64286588 372.13338882 489.48218918 372.10626793 C509.89440876 371.81743568 509.89440876 371.81743568 518.21762085 379.62519836 C526.1907229 387.9008042 526.54266412 395.71512908 526.51586914 406.76504517 C526.52321673 408.19811664 526.53180496 409.63118222 526.54153442 411.0642395 C526.56368901 414.94252466 526.56668409 418.82059696 526.56478691 422.6989367 C526.56466691 425.94420307 526.57324343 429.18942483 526.58156443 432.43467873 C526.60077747 440.09610089 526.60369031 447.75741411 526.59692383 455.41885376 C526.59028752 463.30391342 526.61313543 471.18850475 526.65023756 479.07346946 C526.68100089 485.85930065 526.69228734 492.64498173 526.68840075 499.4308812 C526.68633973 503.4766557 526.6917113 507.5220658 526.71629333 511.56777382 C526.73866765 515.37572783 526.73659529 519.18292442 526.71636581 522.99088287 C526.71297427 524.38155654 526.71796428 525.77228226 526.7323494 527.16288567 C526.822653 536.5463572 525.8056722 544.08758083 519.5741806 551.42732716 C510.80521118 559.7586082 500.18451513 560.21752912 488.72424316 560.14285278 C487.17593345 560.14746764 485.62762812 560.15382447 484.07933187 560.16176176 C479.84552087 560.17839808 475.61207237 560.17023483 471.37826037 560.15781689 C466.80421718 560.14874528 462.23023516 560.16274657 457.65620422 560.17373657 C448.70390297 560.19150388 439.75173601 560.18768978 430.79942954 560.17608601 C423.52237766 560.16704493 416.24536337 560.16583061 408.9683075 560.17018127 C407.93178916 560.17079421 406.89527082 560.17140714 405.82734284 560.17203864 C403.72154048 560.17331757 401.61573813 560.17461443 399.5099358 560.17592901 C379.77334278 560.18732957 360.03682414 560.17422931 340.30024332 560.15272754 C323.37289516 560.13485705 306.44565673 560.1379613 289.51831055 560.15640259 C269.85135101 560.17781854 250.18445662 560.18623098 230.51748705 560.17395353 C228.41952039 560.17267936 226.32155372 560.17142188 224.22358704 560.17018127 C223.19140268 560.16956417 222.15921833 560.16894707 221.09575567 560.16831127 C213.8291766 560.16486055 206.56263894 560.17068073 199.29606628 560.18009949 C190.43804399 560.19132889 181.58016345 560.1882596 172.72215736 560.16697651 C168.20442523 560.1564788 163.68692926 560.15232244 159.16919899 560.16557312 C155.03013044 560.17752938 150.89151603 560.17088151 146.75248843 560.14966291 C145.25868038 560.1452105 143.76483361 560.14743242 142.27105063 560.15716606 C132.19131641 560.21778648 124.31941272 559.08437653 115.78344727 553.44741821 C108.98110647 546.32868947 106.94286992 539.22747303 106.98242188 529.57363892 C106.98227585 528.64661163 106.98212982 527.71958435 106.98197937 526.76446533 C106.98267673 523.69651968 106.9904609 520.62863453 106.99829102 517.56069946 C107.00015582 515.43506402 107.00157943 513.30942814 107.00257874 511.18379211 C107.00639897 505.58602718 107.01622508 499.98828814 107.02728271 494.39053345 C107.03750742 488.67968089 107.04207863 482.96882416 107.04711914 477.25796509 C107.05784776 466.05027141 107.07491829 454.84259696 107.09594727 443.63491821 C106.08564799 443.63860538 105.07534872 443.64229256 104.03443432 443.64609146 C79.42895762 443.7349685 54.82350179 443.80065864 30.21789837 443.8421669 C18.31871008 443.86277455 6.41962795 443.8908609 -5.47949219 443.93667603 C-15.85318025 443.97659868 -26.22679141 444.00236408 -36.60055417 444.01127219 C-42.09120945 444.01647771 -47.58164474 444.02867532 -53.07222939 444.05783844 C-58.24569525 444.08509321 -63.41885159 444.09334287 -68.59238243 444.08734894 C-70.48575907 444.08844468 -72.37914662 444.09633831 -74.27246094 444.11174011 C-95.98337394 444.27961433 -95.98337394 444.27961433 -105.27905273 437.38491821 C-110.92077566 431.47454182 -114.0188249 425.92915731 -114.04106712 417.70409203 C-114.04614167 416.70604369 -114.05121621 415.70799535 -114.05644453 414.67970312 C-114.05694228 413.58536447 -114.05744004 412.49102582 -114.05795288 411.36352539 C-114.06452626 409.61713837 -114.06452626 409.61713837 -114.07123244 407.8354708 C-114.08228904 404.60295999 -114.08884238 401.3704765 -114.09341359 398.13795114 C-114.0993762 394.65176178 -114.11098437 391.1655902 -114.1217041 387.67941284 C-114.14621269 379.25975799 -114.16085281 370.84009726 -114.17376417 362.42041773 C-114.17747717 360.04172489 -114.18145031 357.66303264 -114.18551683 355.28434038 C-114.21075398 340.50796814 -114.23280362 325.73159495 -114.24524498 310.95520592 C-114.2481746 307.53350191 -114.25113627 304.11179793 -114.25415039 300.69009399 C-114.25489644 299.83966328 -114.25564249 298.98923257 -114.25641115 298.11303122 C-114.26906195 284.33981012 -114.30228231 270.56671818 -114.34395222 256.79355745 C-114.38639778 242.64788644 -114.40994302 228.50228152 -114.41516554 214.356547 C-114.41857664 206.41627367 -114.43029621 198.47620224 -114.46326828 190.53599167 C-114.49130602 183.77303752 -114.50225187 177.01032666 -114.49107282 170.24731891 C-114.48589562 166.798854 -114.48871055 163.35089829 -114.51353836 159.90250778 C-114.53621623 156.15731928 -114.52793902 152.41340819 -114.51205444 148.66821289 C-114.52593653 147.58725857 -114.53981862 146.50630425 -114.55412138 145.39259374 C-114.46919463 137.24935859 -112.51939463 130.60016442 -106.94353712 124.48465765 C-98.63590225 116.46745579 -90.03205423 116.20754001 -78.99780273 116.34194946 C-77.6640267 116.34755504 -76.33024442 116.35182059 -74.99645996 116.35481262 C-71.51113383 116.36618594 -68.02619162 116.39558653 -64.54101562 116.42892456 C-60.9745808 116.45978911 -57.40808304 116.47335271 -53.84155273 116.48843384 C-46.86222984 116.52046494 -39.8831598 116.57156842 -32.90405273 116.63491821 C-32.91293518 115.47948517 -32.92181763 114.32405212 -32.93096924 113.13360596 C-33.01223696 102.21739675 -33.07210535 91.30124934 -33.11130142 80.38480568 C-33.13213033 74.77322353 -33.16036217 69.1618866 -33.20581055 63.55044556 C-33.24943573 58.12987245 -33.27322513 52.70953447 -33.28356171 47.28879929 C-33.29092319 45.22604041 -33.3052982 43.16329366 -33.32697296 41.10063553 C-33.35622854 38.19983882 -33.35999951 35.30000007 -33.3581543 32.39907837 C-33.3725354 31.55606171 -33.3869165 30.71304504 -33.4017334 29.84448242 C-33.34486198 21.52188165 -30.67571595 13.34210792 -24.77995753 7.28137565 C-17.36871254 0.77662156 -9.51569286 -0.09069415 0 0 Z " fill="#117A41" transform="translate(113.904052734375,-0.634918212890625)"/>
<path d="M0 0 C8.05923739 -0.06911695 16.11846669 -0.1224937 24.17789662 -0.16339397 C29.70156351 -0.19247786 35.22449348 -0.24221988 40.74783379 -0.30838346 C44.10603292 -0.34325043 47.46406926 -0.35704316 50.82243043 -0.36468458 C52.35393038 -0.37234774 53.88541763 -0.38856374 55.41671878 -0.41440153 C65.26810214 -0.57515738 73.50216984 0.12352083 81.01044852 7.11966562 C88.95177205 15.42767605 89.32130095 23.19518085 89.29447085 34.25958109 C89.30181844 35.69265257 89.31040667 37.12571814 89.32013613 38.55877542 C89.34229072 42.43706058 89.3452858 46.31513288 89.34338862 50.19347262 C89.34326861 53.43873899 89.35184514 56.68396076 89.36016613 59.92921466 C89.37937918 67.59063682 89.38229202 75.25195004 89.37552553 82.91338968 C89.36888922 90.79844934 89.39173713 98.68304068 89.42883927 106.56800538 C89.4596026 113.35383658 89.47088904 120.13951765 89.46700245 126.92541713 C89.46494143 130.97119162 89.470313 135.01660172 89.49489504 139.06230974 C89.51726936 142.87026376 89.515197 146.67746034 89.49496752 150.4854188 C89.49157597 151.87609246 89.49656598 153.26681819 89.5109511 154.65742159 C89.60125471 164.04089313 88.58427391 171.58211675 82.35278231 178.92186308 C73.58381289 187.25314412 62.96311683 187.71206504 51.50284487 187.63738871 C49.95453516 187.64200356 48.40622983 187.64836039 46.85793358 187.65629768 C42.62412257 187.672934 38.39067407 187.66477075 34.15686208 187.65235281 C29.58281889 187.64328121 25.00883687 187.6572825 20.43480593 187.6682725 C11.48250467 187.6860398 2.53033772 187.6822257 -6.42196876 187.67062193 C-13.69902063 187.66158085 -20.97603492 187.66036653 -28.2530908 187.6647172 C-29.28960914 187.66533013 -30.32612747 187.66594306 -31.39405546 187.66657457 C-33.49985781 187.6678535 -35.60566016 187.66915035 -37.7114625 187.67046493 C-57.44805551 187.68186549 -77.18457416 187.66876524 -96.92115498 187.64726347 C-113.84850314 187.62939297 -130.77574157 187.63249723 -147.70308775 187.65093851 C-167.37004728 187.67235446 -187.03694167 187.68076691 -206.70391124 187.66848946 C-208.80187791 187.66721529 -210.89984458 187.6659578 -212.99781126 187.6647172 C-214.54608779 187.66379154 -214.54608779 187.66379154 -216.12564263 187.66284719 C-223.39222169 187.65939647 -230.65875936 187.66521665 -237.92533201 187.67463541 C-246.7833543 187.68586481 -255.64123484 187.68279552 -264.49924093 187.66151243 C-269.01697307 187.65101472 -273.53446903 187.64685836 -278.0521993 187.66010904 C-282.19126785 187.67206531 -286.32988226 187.66541743 -290.46890986 187.64419883 C-291.96271792 187.63974643 -293.45656468 187.64196834 -294.95034766 187.65170199 C-305.03008188 187.7123224 -312.90198557 186.57891246 -321.43795103 180.94195414 C-326.32979615 175.82258133 -330.25515956 169.3564846 -330.24570554 162.12415934 C-330.24708021 161.31227655 -330.24845487 160.50039377 -330.24987119 159.66390848 C-330.24627592 158.77702341 -330.24268064 157.89013834 -330.23897642 156.97637796 C-330.23912245 156.03959711 -330.23926847 155.10281626 -330.23941892 154.13764811 C-330.23872153 151.03723708 -330.2309372 147.93688593 -330.22310728 144.83648539 C-330.22124248 142.68842969 -330.21981887 140.54037357 -330.21881956 138.3923173 C-330.21499923 132.73536873 -330.20517304 127.07844579 -330.19411558 121.42150736 C-330.18389108 115.65033169 -330.17931971 109.87915188 -330.17427915 104.10796976 C-330.16355037 92.78178662 -330.14647972 81.45562251 -330.12545103 70.12945414 C-329.12257551 70.12580851 -328.11969999 70.12216288 -327.0864343 70.11840677 C-317.59775694 70.08133526 -308.10940046 70.02343072 -298.62096781 69.9455514 C-293.74378717 69.90617851 -288.86678433 69.87394029 -283.9894647 69.85845804 C-279.27541558 69.84322404 -274.5618556 69.80866 -269.84802526 69.76114511 C-268.0569094 69.74640051 -266.26572368 69.73841713 -264.47454733 69.73757029 C-248.58309009 69.77178157 -248.58309009 69.77178157 -234.40670103 63.12164164 C-233.81888853 62.42296976 -233.23107603 61.72429789 -232.62545103 61.00445414 C-232.01701353 60.32125101 -231.40857603 59.63804789 -230.78170103 58.93414164 C-226.43490981 51.57330178 -225.6711969 43.69698332 -225.61373228 35.30914164 C-225.58680547 33.83213282 -225.58680547 33.83213282 -225.5593347 32.32528543 C-225.50568757 29.21838365 -225.47148345 26.11163136 -225.43795103 23.00445414 C-225.40473764 20.88203769 -225.37024434 18.75964087 -225.3344354 16.63726664 C-225.2499878 11.46810453 -225.18296085 6.29898325 -225.12545103 1.12945414 C-199.34325949 0.996417 -173.56105581 0.86597856 -147.77883714 0.73830271 C-135.79663137 0.6789107 -123.81443038 0.61876613 -111.83223814 0.55670023 C-107.18453337 0.5327131 -102.53682824 0.50879851 -97.8891229 0.48492289 C-96.1657998 0.47604799 -96.1657998 0.47604799 -94.40766209 0.46699381 C-81.72052767 0.40196385 -69.03339667 0.3417949 -56.34618467 0.29400492 C-55.21408681 0.28971853 -54.08198895 0.28543215 -52.9155851 0.28101587 C-48.38340099 0.26393318 -43.85121681 0.24690905 -39.31902999 0.23055887 C-26.21236052 0.18281172 -13.10627816 0.11297408 0 0 Z " fill="#175B36" transform="translate(551.125451028347,371.8705458641052)"/>
<path d="M0 0 C1.90108473 -0.01169993 1.90108473 -0.01169993 3.84057522 -0.02363622 C7.33339246 -0.04438621 10.82552107 -0.03424942 14.31833982 -0.01870513 C18.09485101 -0.00734642 21.87124753 -0.02487661 25.6477356 -0.03860474 C33.03594997 -0.06079373 40.42390983 -0.05605542 47.81213403 -0.04154153 C53.81869606 -0.03023214 59.82518696 -0.02872573 65.83175659 -0.03416061 C67.11593638 -0.03530986 67.11593638 -0.03530986 68.42605919 -0.03648233 C70.16545655 -0.03808101 71.9048539 -0.03970208 73.64425123 -0.04134528 C89.940087 -0.05559007 106.23578196 -0.03923003 122.53159463 -0.01234345 C136.50266028 0.00999419 150.47351818 0.0061137 164.44458008 -0.01693726 C180.68360468 -0.04371774 196.92250597 -0.05421689 213.16154957 -0.03887594 C214.89441234 -0.03728326 216.62727513 -0.0357114 218.36013794 -0.03416061 C219.63891372 -0.03300355 219.63891372 -0.03300355 220.94352335 -0.03182311 C226.94023351 -0.02751285 232.93686522 -0.03477809 238.93356323 -0.04655838 C246.24537535 -0.06060694 253.55691921 -0.05673414 260.86870074 -0.03015466 C264.59664971 -0.01704792 268.32415204 -0.01180974 272.05209732 -0.02840042 C276.09908224 -0.04613805 280.14494747 -0.02490631 284.19189453 0 C285.36213889 -0.01115361 286.53238325 -0.02230722 287.73808956 -0.03379881 C296.48358693 0.07047207 302.80206625 2.30092118 309.71704102 7.67007446 C318.75836557 17.76135929 318.52602466 29.78091463 318.34472656 42.6847229 C318.33399415 44.26281911 318.32462357 45.84092508 318.3164978 47.41903687 C318.29082783 51.66632215 318.24631486 55.91321792 318.19819999 60.16030025 C318.15103871 64.61246951 318.12150919 69.06475647 318.09004211 73.51705933 C318.02792655 81.93163027 317.95014732 90.34597921 317.86662179 98.76036191 C317.75455432 110.14235233 317.66692346 121.52452987 317.57786274 132.90671921 C317.4370886 150.81633583 317.26387346 168.72548791 317.09594727 186.63491821 C289.70594727 186.63491821 262.31594727 186.63491821 234.09594727 186.63491821 C233.78344727 162.19741821 233.78344727 162.19741821 233.70800781 154.53555298 C233.67569041 152.50745849 233.64231285 150.4793805 233.60766602 148.45132446 C233.59830017 146.90100525 233.59830017 146.90100525 233.58874512 145.31936646 C233.3769851 134.55040727 230.51415882 125.50375331 223.12329102 117.49819946 C213.57103095 108.3839619 203.3209065 106.49077228 190.52883911 106.47669983 C189.57224486 106.47176185 188.61565061 106.46682387 187.63006866 106.46173626 C184.42875517 106.44639364 181.22746169 106.43800939 178.02612305 106.42959595 C175.72969894 106.42001488 173.43327659 106.41000467 171.13685608 106.39959717 C164.90395032 106.37256681 158.671037 106.35154709 152.43810511 106.33159518 C145.92380045 106.30972414 139.40951905 106.28234091 132.89523315 106.25553894 C121.96182249 106.21129914 111.02840397 106.17046134 100.0949707 106.13223267 C88.83487008 106.09285248 77.57478009 106.05142023 66.31469727 106.00723267 C65.27310682 106.00314626 65.27310682 106.00314626 64.21047415 105.9989773 C60.72680922 105.9852974 57.24314445 105.97157721 53.75947976 105.95783699 C24.87165798 105.84395013 -4.01618761 105.73719616 -32.90405273 105.63491821 C-32.99700436 94.98584477 -33.06794503 84.33686891 -33.11130142 73.68747139 C-33.13211732 68.7417473 -33.16032468 63.79630213 -33.20581055 58.85073853 C-33.24948313 54.07206379 -33.27323488 49.29365622 -33.28356171 44.51479721 C-33.29091481 42.69764886 -33.30527323 40.88051404 -33.32697296 39.06348038 C-33.46149079 27.32572321 -33.51226761 16.26914455 -24.77997303 7.27908838 C-17.36392951 0.77921868 -9.51770189 -0.09071329 0 0 Z " fill="#32C380" transform="translate(113.904052734375,-0.634918212890625)"/>
<path d="M0 0 C29.47854194 -0.06851757 58.9570801 -0.12157015 88.43568502 -0.15319599 C91.92017687 -0.15694787 95.40466855 -0.16083086 98.88916016 -0.16479492 C99.58282567 -0.16558185 100.27649119 -0.16636878 100.99117687 -0.16717956 C112.20575137 -0.18021425 123.42027948 -0.20385736 134.63482651 -0.23145839 C146.15197048 -0.25956662 157.66908191 -0.2759633 169.18625951 -0.28226548 C175.65108235 -0.28617105 182.11580016 -0.29532878 188.58058929 -0.31719017 C194.67082232 -0.33761726 200.76090746 -0.34382118 206.85117149 -0.33932304 C209.08114362 -0.34014546 211.31112091 -0.3460738 213.54106331 -0.35761642 C230.82139376 -0.44264311 244.43724302 0.111056 257.75 12.25 C264.11328263 18.90924927 267.13661665 27.03642422 267.11352539 36.1574707 C267.11344986 37.15813065 267.11337433 38.15879059 267.11329651 39.18977356 C267.10813522 40.2576561 267.10297394 41.32553864 267.09765625 42.42578125 C267.09553383 44.07987251 267.09553383 44.07987251 267.09336853 45.76737976 C267.08778004 49.28244767 267.07522959 52.79745141 267.0625 56.3125 C267.05748352 58.69856679 267.05292087 61.08463457 267.04882812 63.47070312 C267.03781437 69.3138239 267.02108764 75.15690737 267 81 C267.8411479 80.99631283 268.6822958 80.99262566 269.54893303 80.98882675 C290.03987072 80.90039185 310.5307754 80.83424958 331.02186394 80.79275131 C340.93131246 80.77214834 350.84063339 80.74407109 360.75 80.69824219 C369.38956004 80.65830503 378.02902766 80.63255073 386.66867745 80.62364602 C391.24102546 80.61844291 395.81310909 80.60626109 400.38537216 80.57707977 C404.69457429 80.54980184 409.00340474 80.54157985 413.31268501 80.54756927 C414.88881136 80.54647455 416.46495095 80.53859455 418.04100227 80.5231781 C429.11888048 80.42019071 439.01749478 81.27978236 447.46484375 89.16796875 C453.85162614 96.78985409 455.12384603 105.17809078 455.12698364 114.87130737 C455.12854363 115.52586761 455.13010362 116.18042784 455.13171089 116.85482323 C455.13567049 119.02807625 455.13255104 121.20125829 455.12939453 123.37451172 C455.13075073 124.94040467 455.1325319 126.5062973 455.13470459 128.07218933 C455.13925063 132.30931813 455.13750161 136.54642249 455.1343255 140.78355169 C455.13178997 145.21801665 455.13414252 149.65247954 455.13571167 154.08694458 C455.13752873 161.52639135 455.135138 168.96582818 455.13037109 176.40527344 C455.12491736 185.01628407 455.12670103 193.62727106 455.1321975 202.23828113 C455.13672752 209.63031081 455.13738009 217.02233336 455.13475883 224.41436398 C455.13319699 228.83027162 455.13300002 233.24616812 455.13629532 237.66207504 C455.13917282 241.8071002 455.13720061 245.95209465 455.13140106 250.09711647 C455.13007332 251.62218105 455.13046781 253.1472482 455.13266373 254.67231178 C455.1353744 256.74510816 455.13199532 258.81780457 455.12698364 260.89059448 C455.12660662 262.05310163 455.12622959 263.21560879 455.12584114 264.41334343 C455 267 455 267 454 268 C451.4454283 268.0977625 448.91791539 268.12995146 446.36289978 268.12025452 C445.55350199 268.12110894 444.7441042 268.12196337 443.9101792 268.12284368 C441.17699528 268.12450096 438.44387169 268.11897309 435.71069336 268.11352539 C433.75983176 268.11324355 431.80897006 268.1134012 429.85810852 268.1139679 C424.54427841 268.11425598 419.23047066 268.10835754 413.91664577 268.10139394 C408.36993315 268.09516216 402.82322009 268.09455674 397.27650452 268.09336853 C386.76507375 268.09025469 376.25365334 268.0820406 365.74222714 268.07201904 C353.77870865 268.06085953 341.81518968 268.05534786 329.85166728 268.05032361 C305.23443911 268.03985803 280.61722013 268.02225758 256 268 C255.99761165 266.79624725 255.99522329 265.59249451 255.99276257 264.3522644 C255.93538166 235.76668725 255.86263614 207.18117648 255.77101372 178.59568912 C255.75974579 175.07600013 255.7486073 171.55631074 255.73754883 168.03662109 C255.7342433 166.98557711 255.7342433 166.98557711 255.730871 165.91329992 C255.69551503 154.5731953 255.67064131 143.23309076 255.64965298 131.89295149 C255.62787737 120.25374012 255.59458831 108.61460377 255.55129844 96.97545242 C255.5273523 90.43925034 255.50863257 83.90312728 255.50238609 77.36688232 C255.49634165 71.21422941 255.47636449 65.06177874 255.44572449 58.90920067 C255.43693408 56.65176993 255.43322375 54.39431278 255.43499184 52.13686562 C255.43664494 49.05219178 255.41994145 45.96813418 255.39872742 42.88354492 C255.40357499 41.9924748 255.40842257 41.10140469 255.41341704 40.18333244 C255.31564757 31.55531526 252.88153175 25.14731882 246.97265625 18.76171875 C242.28807158 14.57805996 236.28081727 11.88494688 229.97639179 11.8613348 C229.15530408 11.85586036 228.33421637 11.85038591 227.48824722 11.84474558 C226.58650384 11.84376747 225.68476046 11.84278936 224.75569153 11.84178162 C223.797577 11.83684364 222.83946247 11.83190566 221.85231417 11.82681805 C218.62786294 11.81140671 215.40343166 11.80307258 212.17895508 11.79467773 C209.87312137 11.78510207 207.56728943 11.77509218 205.26145935 11.76467896 C198.98912104 11.73759007 192.71677517 11.71660208 186.44441056 11.69667697 C179.8940532 11.67484196 173.34371924 11.64744113 166.79338074 11.62062073 C155.79496339 11.57617723 144.79653641 11.53551213 133.7980957 11.49731445 C122.46898461 11.45795893 111.13988422 11.41653257 99.81079102 11.37231445 C99.11262222 11.36959018 98.41445343 11.36686591 97.695128 11.36405908 C94.1926671 11.3503796 90.69020635 11.33665932 87.18774569 11.32291877 C58.12518638 11.20895583 29.06260293 11.10221938 0 11 C0 7.37 0 3.74 0 0 Z " fill="#21A266" transform="translate(81,105)"/>
<path d="M0 0 C95.50577367 0 95.50577367 0 109.625 7.4375 C110.71039063 7.99308594 111.79578125 8.54867187 112.9140625 9.12109375 C125.02261793 16.493518 130.63082046 27.89246137 135 41 C136.36576322 60.94635097 134.51066084 79.87197289 121.375 95.8125 C108.97872454 108.63870409 92.36560844 115.88504049 74.52856445 116.22705078 C72.64010715 116.22656135 70.75162602 116.21593418 68.86328125 116.1953125 C67.97008179 116.19329834 67.07688232 116.19128418 66.15661621 116.18920898 C62.87519059 116.1788817 59.59383917 116.15096123 56.3125 116.125 C48.949375 116.08375 41.58625 116.0425 34 116 C34 137.12 34 158.24 34 180 C22.78 180 11.56 180 0 180 C0 120.6 0 61.2 0 0 Z " fill="#FDFEFE" transform="translate(97,189)"/>
<path d="M0 0 C7.26 0 14.52 0 22 0 C22.09082601 7.89382836 22.1640155 15.78724186 22.20724869 23.68145466 C22.22801169 27.34813866 22.25611844 31.01444276 22.30175781 34.6809082 C22.3456244 38.22766472 22.36922168 41.77405877 22.37950897 45.3210659 C22.39035921 47.31445154 22.42151824 49.30769393 22.45318604 51.30085754 C22.45617094 63.55621907 19.55986461 73.03752418 11 82 C1.815388 90.55448269 -8.89768841 93.16505842 -21.10473633 93.11352539 C-22.01254852 93.11367142 -22.92036072 93.11381744 -23.85568237 93.1139679 C-26.84782321 93.11327281 -29.83990132 93.10549931 -32.83203125 93.09765625 C-34.90996771 93.09579064 -36.98790462 93.09436741 -39.06584167 93.09336853 C-44.52877013 93.08955465 -49.99167191 93.07973399 -55.45458984 93.06866455 C-61.03157185 93.05842616 -66.60855818 93.05386571 -72.18554688 93.04882812 C-83.12371151 93.03811072 -94.06184936 93.02052304 -105 93 C-105 85.08 -105 77.16 -105 69 C-102.57358154 68.9906543 -100.14716309 68.98130859 -97.6472168 68.97167969 C-89.59649805 68.93778969 -81.5460324 68.88217443 -73.49551678 68.81609726 C-68.61833614 68.77672437 -63.7413333 68.74448616 -58.86401367 68.72900391 C-54.14996455 68.71376991 -49.43640457 68.67920586 -44.72257423 68.63169098 C-42.93145837 68.61694637 -41.14027265 68.60896299 -39.3490963 68.60811615 C-23.45763907 68.64232743 -23.45763907 68.64232743 -9.28125 61.9921875 C-8.6934375 61.29351562 -8.105625 60.59484375 -7.5 59.875 C-6.8915625 59.19179688 -6.283125 58.50859375 -5.65625 57.8046875 C-1.30945878 50.44384765 -0.54574587 42.56752918 -0.48828125 34.1796875 C-0.46135445 32.70267868 -0.46135445 32.70267868 -0.43388367 31.1958313 C-0.38023654 28.08892951 -0.34603243 24.98217723 -0.3125 21.875 C-0.27928661 19.75258356 -0.24479331 17.63018674 -0.20898438 15.5078125 C-0.12215651 10.33852558 -0.06169828 5.16989041 0 0 Z " fill="#124429" transform="translate(326,373)"/>
<path d="M0 0 C6.496875 -0.103125 12.99375 -0.20625 19.6875 -0.3125 C21.70963623 -0.35802002 23.73177246 -0.40354004 25.81518555 -0.45043945 C38.44328401 -0.61689516 49.06869651 0.27878169 59 9 C60.546875 11.40234375 60.546875 11.40234375 61.75 13.9375 C62.15734375 14.77152344 62.5646875 15.60554687 62.984375 16.46484375 C66.1228572 24.29897815 66.28340016 33.51195096 63.25 41.375 C58.95602743 50.67613089 53.78011365 55.45804747 44.43261719 59.56884766 C39.7314883 61.29893639 35.43395603 61.38559231 30.46875 61.29296875 C29.69047852 61.28994751 28.91220703 61.28692627 28.11035156 61.28381348 C25.24009688 61.26827513 22.37003323 61.22639276 19.5 61.1875 C13.065 61.125625 6.63 61.06375 0 61 C0 40.87 0 20.74 0 0 Z " fill="#138045" transform="translate(133,216)"/>
<path d="M0 0 C3.63 0 7.26 0 11 0 C11.09079435 7.5198678 11.16399828 15.03952786 11.20724869 22.55981255 C11.22801927 26.05277947 11.25614006 29.54534814 11.30175781 33.03808594 C11.35400946 37.06448939 11.37303198 41.09048227 11.390625 45.1171875 C11.41127014 46.35612762 11.43191528 47.59506775 11.45318604 48.87155151 C11.4555588 58.14249359 10.11193441 65.79097988 3.8125 72.875 C-4.45805363 80.38402513 -14.25364821 81.161241 -24.96459961 81.11352539 C-25.83368958 81.11367142 -26.70277954 81.11381744 -27.59820557 81.1139679 C-30.44961101 81.11327536 -33.30094982 81.105514 -36.15234375 81.09765625 C-38.13774073 81.09578973 -40.12313816 81.09436693 -42.10853577 81.09336853 C-47.31826055 81.08956181 -52.52795719 81.07974735 -57.7376709 81.06866455 C-63.0601361 81.05841069 -68.38260588 81.05386241 -73.70507812 81.04882812 C-84.13673108 81.03812335 -94.56836319 81.02106919 -105 81 C-105 77.04 -105 73.08 -105 69 C-103.99712448 68.99635437 -102.99424896 68.99270874 -101.96098328 68.98895264 C-92.47230591 68.95188112 -82.98394943 68.89397659 -73.49551678 68.81609726 C-68.61833614 68.77672437 -63.7413333 68.74448616 -58.86401367 68.72900391 C-54.14996455 68.71376991 -49.43640457 68.67920586 -44.72257423 68.63169098 C-42.93145837 68.61694637 -41.14027265 68.60896299 -39.3490963 68.60811615 C-23.45763907 68.64232743 -23.45763907 68.64232743 -9.28125 61.9921875 C-8.6934375 61.29351562 -8.105625 60.59484375 -7.5 59.875 C-6.8915625 59.19179688 -6.283125 58.50859375 -5.65625 57.8046875 C-1.30945878 50.44384765 -0.54574587 42.56752918 -0.48828125 34.1796875 C-0.46135445 32.70267868 -0.46135445 32.70267868 -0.43388367 31.1958313 C-0.38023654 28.08892951 -0.34603243 24.98217723 -0.3125 21.875 C-0.27928661 19.75258356 -0.24479331 17.63018674 -0.20898438 15.5078125 C-0.12453677 10.3386504 -0.05750982 5.16952912 0 0 Z " fill="#0D331E" transform="translate(326,373)"/>
<path d="M0 0 C3.63 0 7.26 0 11 0 C11 61.71 11 123.42 11 187 C7.37 187 3.74 187 0 187 C0 125.29 0 63.58 0 0 Z " fill="#135E3B" transform="translate(326,186)"/>
<path d="M0 0 C3.63 0 7.26 0 11 0 C11 61.38 11 122.76 11 186 C7.37 186 3.74 186 0 186 C0 124.62 0 63.24 0 0 Z " fill="#198151" transform="translate(337,187)"/>
<path d="M0 0 C8.45963171 -0.64797179 15.48447909 0.46578075 22.30078125 5.80078125 C27.5790687 10.77028406 31.70710997 16.68304819 32.12025452 24.18302917 C32.11803391 25.02908218 32.11581329 25.87513519 32.11352539 26.74682617 C32.11344986 27.70759567 32.11337433 28.66836517 32.11329651 29.6582489 C32.10813522 30.69270645 32.10297394 31.727164 32.09765625 32.79296875 C32.0962413 33.85413406 32.09482635 34.91529938 32.09336853 36.00862122 C32.08776606 39.40160935 32.07521314 42.79453177 32.0625 46.1875 C32.05748532 48.48632717 32.05292236 50.78515538 32.04882812 53.08398438 C32.03779583 58.72268162 32.02052952 64.36132966 32 70 C28.37 70 24.74 70 21 70 C20.9906543 68.59830566 20.98130859 67.19661133 20.97167969 65.75244141 C20.9315846 60.51514775 20.86577174 55.27842949 20.79248047 50.04150391 C20.76438371 47.78181389 20.74311343 45.52202767 20.72900391 43.26220703 C20.70741781 39.99982848 20.66068651 36.73859314 20.609375 33.4765625 C20.60814636 32.47823395 20.60691772 31.4799054 20.60565186 30.45132446 C20.44475169 22.61594639 18.89193638 15.5868564 13.88671875 9.37890625 C9.42719284 5.69563884 5.4981582 2.87171343 0 1 C0 0.67 0 0.34 0 0 Z " fill="#1E724A" transform="translate(305,116)"/>
</svg>
