<?xml version="1.0" encoding="UTF-8"?>
<svg version="1.1" xmlns="http://www.w3.org/2000/svg" width="48" height="48">
<path d="M0 0 C0 11.88 0 23.76 0 36 C-10.22671963 38.55667991 -15.47979439 38.22364835 -24.9375 34.5 C-27.928125 33.345 -30.91875 32.19 -34 31 C-34 22.42 -34 13.84 -34 5 C-31.009375 3.845 -28.01875 2.69 -24.9375 1.5 C-24.00929443 1.13455078 -23.08108887 0.76910156 -22.12475586 0.39257812 C-13.78393174 -2.75160688 -8.87838646 -2.21959662 0 0 Z M-26 7 C-26 13.93 -26 20.86 -26 28 C-27.65 28.33 -29.3 28.66 -31 29 C-31 29.33 -31 29.66 -31 30 C-29.14718166 30.3407482 -27.29265605 30.67221783 -25.4375 31 C-24.40496094 31.185625 -23.37242188 31.37125 -22.30859375 31.5625 C-18.3996335 32.15293869 -18.3996335 32.15293869 -12 32 C-12 23.09 -12 14.18 -12 5 C-17.04595272 4.86925591 -17.04595272 4.86925591 -26 7 Z " fill="#E64A18" transform="translate(41,6)"/>
</svg>
