<?xml version="1.0" encoding="UTF-8"?>
<svg version="1.1" xmlns="http://www.w3.org/2000/svg" width="180" height="72">
<path d="M0 0 C3.46083026 3.04133568 5.21878303 6.33025361 6.0625 10.8125 C7.01436441 27.72639831 7.01436441 27.72639831 3.0625 34.8125 C0.33326929 37.76916661 -1.41756281 38.67770147 -5.3125 39.6875 C-9.40719231 39.82869629 -12.15156056 39.38402203 -15.9375 37.8125 C-20.77621528 33.10456081 -22.17016522 27.69706827 -22.31762695 21.05151367 C-22.30008258 14.03125642 -22.19477756 7.71367682 -17.9375 1.8125 C-13.26498344 -2.72258961 -5.75236374 -2.32542364 0 0 Z M-12.625 6.125 C-16.2587949 10.34805893 -16.12313318 13.7020957 -16.1875 19.125 C-16.21328125 20.42050781 -16.2390625 21.71601562 -16.265625 23.05078125 C-15.91751565 27.0416063 -15.04449629 29.43210061 -12.9375 32.8125 C-10.09666359 34.23291821 -8.08272722 34.12702272 -4.9375 33.8125 C-2.08969381 31.58043569 -1.08752334 30.26257001 0.0625 26.8125 C0.18389491 24.35637046 0.23792192 21.89659804 0.25 19.4375 C0.27126953 17.47683594 0.27126953 17.47683594 0.29296875 15.4765625 C0.01504271 11.05800952 -0.59712228 8.10819846 -3.8125 5 C-7.5947513 2.88638898 -9.43257056 3.37802583 -12.625 6.125 Z " fill="#000000" transform="translate(97.9375,14.1875)"/>
<path d="M0 0 C4.99076162 2.81297473 7.03306899 6.05059205 8.53125 11.41015625 C9.96211628 19.31569246 9.92860494 27.80491454 6 35 C3.50665301 38.06703745 0.85668182 39.72659091 -2.9375 40.9375 C-8.35754188 41.0481131 -11.76992935 40.12073104 -15.8125 36.4375 C-20.56943764 30.00624549 -20.71541992 21.32093567 -19.6875 13.67578125 C-18.79104814 8.8333404 -17.6327596 5.52591373 -14 2 C-9.51414893 -0.70301282 -5.09838072 -0.75710551 0 0 Z M-10.1875 6.5625 C-13.98402951 11.66817762 -14.75498749 17.77707281 -14 24 C-12.56032801 30.50776124 -12.56032801 30.50776124 -8 35 C-5.04253508 35.58345476 -5.04253508 35.58345476 -2 35 C2.4511175 30.66918297 3.14704406 26.75576294 3.25 20.75 C3.20051996 15.46977262 2.32596006 11.73806678 0 7 C-3.86982258 4.42011828 -6.27007373 3.76433838 -10.1875 6.5625 Z " fill="#000000" transform="translate(63,13)"/>
<path d="M0 0 C18.57183099 0 18.57183099 0 22.68359375 3.38671875 C25.44277471 6.76814823 25.33547938 10.54883278 25.28125 14.7109375 C24.8395937 18.30552907 23.39277706 20.34854434 21 23 C16.48811916 25.91945231 11.18076281 25.13815367 6 25 C6 29.95 6 34.9 6 40 C4.02 40 2.04 40 0 40 C0 26.8 0 13.6 0 0 Z M6 6 C6 10.62 6 15.24 6 20 C11.73337137 20.4095814 11.73337137 20.4095814 17 18.4375 C19.30727834 16.05688825 19.30727834 16.05688825 19.5 12.4375 C19.28468228 9.12805878 19.28468228 9.12805878 17.79296875 7.296875 C15.36837647 5.54313941 13.77137158 5.69721929 10.8125 5.8125 C9.224375 5.874375 7.63625 5.93625 6 6 Z " fill="#000000" transform="translate(111,13)"/>
<path d="M0 0 C0 1.65 0 3.3 0 5 C-0.639375 5.28875 -1.27875 5.5775 -1.9375 5.875 C-4.15206079 6.82823451 -4.15206079 6.82823451 -5 9 C-5.27758124 12.30894459 -5.44696305 15.61770071 -5.62109375 18.93359375 C-6 22 -6 22 -8 25 C-7.34 25.66 -6.68 26.32 -6 27 C-5.62109375 29.96875 -5.62109375 29.96875 -5.4375 33.5 C-5.33592729 37.90933762 -5.33592729 37.90933762 -4 42 C-1.98330173 43.13350534 -1.98330173 43.13350534 0 44 C0 45.32 0 46.64 0 48 C-3.58743871 48.33371523 -5.52242395 48.28150377 -8.6640625 46.4296875 C-11.75972489 43.20978448 -11.62774185 41.27871606 -11.6875 36.875 C-11.46320184 31.87938348 -11.46320184 31.87938348 -14 28 C-16.06874034 27.3574765 -16.06874034 27.3574765 -18 27 C-18 25.35 -18 23.7 -18 22 C-17.195625 21.71125 -16.39125 21.4225 -15.5625 21.125 C-12.8673532 20.26737432 -12.8673532 20.26737432 -12 18 C-11.8409349 14.72149148 -11.74594976 11.44557451 -11.671875 8.1640625 C-11 5 -11 5 -8.625 2.6328125 C-5.77609299 0.86072451 -3.37445308 0 0 0 Z " fill="#000000" transform="translate(34,13)"/>
<path d="M0 0 C8.88073836 1.89261637 8.88073836 1.89261637 11 5 C11.44140625 8.28515625 11.44140625 8.28515625 11.5625 12.0625 C11.42850726 17.08985778 11.42850726 17.08985778 14 21 C16.06874034 21.6425235 16.06874034 21.6425235 18 22 C18 23.65 18 25.3 18 27 C16.7934375 27.4640625 16.7934375 27.4640625 15.5625 27.9375 C13.10919595 28.76335345 13.10919595 28.76335345 12 30 C11.8357358 33.52711736 11.74503878 37.0518789 11.671875 40.58203125 C11 44 11 44 8.66015625 46.43359375 C5.52114076 48.28197145 3.58363438 48.33336134 0 48 C0.33 46.35 0.66 44.7 1 43 C2.485 42.505 2.485 42.505 4 42 C5.81361978 38.37276044 5.41091321 34.06878043 5.62109375 30.06640625 C6 27 6 27 8 24 C7.34 23.34 6.68 22.68 6 22 C5.65149699 18.6870157 5.55670183 15.39510134 5.44140625 12.06640625 C5.25806688 9.02701935 5.25806688 9.02701935 3.58984375 7.15234375 C1.99095722 5.92764037 1.99095722 5.92764037 0 5 C0 3.35 0 1.7 0 0 Z " fill="#000000" transform="translate(146,13)"/>
</svg>
