<?xml version="1.0" encoding="UTF-8"?>
<svg version="1.1" xmlns="http://www.w3.org/2000/svg" width="48" height="48">
<path d="M0 0 C3.3 0 6.6 0 10 0 C10.33 1.65 10.66 3.3 11 5 C15.53140653 5.93380961 15.53140653 5.93380961 20 5 C20.86949317 6.07107117 21.72014205 7.15745944 22.5625 8.25 C23.03816406 8.85328125 23.51382813 9.4565625 24.00390625 10.078125 C25 12 25 12 24.77734375 14.109375 C24 16 24 16 22 18 C22.35299007 21.44165321 23.04581692 23.06872538 25 26 C16.585 26.495 16.585 26.495 8 27 C6.68 31.29 5.36 35.58 4 40 C2.35 39.67 0.7 39.34 -1 39 C-1 37.68 -1 36.36 -1 35 C-5.53140653 34.06619039 -5.53140653 34.06619039 -10 35 C-10.89422914 33.7636832 -11.76487891 32.51028438 -12.625 31.25 C-13.11226562 30.55390625 -13.59953125 29.8578125 -14.1015625 29.140625 C-15 27 -15 27 -14.19921875 24.89453125 C-13.80347656 24.26933594 -13.40773438 23.64414062 -13 23 C-12.09871362 20.49582411 -12.09871362 20.49582411 -12 18 C-13.33378575 16.1645201 -13.33378575 16.1645201 -15 15 C-13.81537831 10.65638712 -12.69510854 7.71699158 -9 5 C-7 5.3125 -7 5.3125 -5 6 C-2.81296615 5.62092718 -2.81296615 5.62092718 -1 5 C-0.67 3.35 -0.34 1.7 0 0 Z M0 17 C-0.33333333 20 -0.33333333 20 0 23 C1.88500271 25.31563087 1.88500271 25.31563087 5 25.25 C8.11499729 25.31563087 8.11499729 25.31563087 10 23 C10.33333333 20 10.33333333 20 10 17 C8.11499729 14.68436913 8.11499729 14.68436913 5 14.75 C1.88500271 14.68436913 1.88500271 14.68436913 0 17 Z " fill="#000000" transform="translate(19,4)"/>
<path d="M0 0 C1.32 0 2.64 0 4 0 C5.31626692 3.61973402 6 6.09567131 6 10 C5.01 10 4.02 10 3 10 C3 9.34 3 8.68 3 8 C2.34 8 1.68 8 1 8 C1 8.66 1 9.32 1 10 C0.01 10 -0.98 10 -2 10 C-1.125 2.25 -1.125 2.25 0 0 Z " fill="#000000" transform="translate(28,34)"/>
<path d="M0 0 C1.98 0 3.96 0 6 0 C6 1.98 6 3.96 6 6 C4.68 6 3.36 6 2 6 C2 7.32 2 8.64 2 10 C1.34 10 0.68 10 0 10 C0 6.7 0 3.4 0 0 Z M2 2 C3 4 3 4 3 4 Z " fill="#000000" transform="translate(36,34)"/>
<path d="M0 0 C0.66 0 1.32 0 2 0 C2 3.3 2 6.6 2 10 C1.34 10 0.68 10 0 10 C0 6.7 0 3.4 0 0 Z " fill="#000000" transform="translate(44,34)"/>
</svg>
